<svg width="217" height="76" viewBox="0 0 217 76" fill="none" xmlns="http://www.w3.org/2000/svg">
<path d="M13.3333 15L18.3333 10L13.3333 5" stroke="black" stroke-width="1.66667" stroke-linecap="square"/>
<path d="M6.66667 5L1.66667 10L6.66667 15" stroke="black" stroke-width="1.66667" stroke-linecap="square"/>
<path d="M38 2.24167L42.7167 6.95834C43.6495 7.89051 44.2848 9.07839 44.5424 10.3717C44.8 11.665 44.6682 13.0057 44.1638 14.2241C43.6593 15.4426 42.8048 16.484 41.7084 17.2168C40.612 17.9495 39.3229 18.3406 38.0042 18.3406C36.6854 18.3406 35.3963 17.9495 34.2999 17.2168C33.2035 16.484 32.349 15.4426 31.8445 14.2241C31.3401 13.0057 31.2083 11.665 31.4659 10.3717C31.7235 9.07839 32.3589 7.89051 33.2917 6.95834L38 2.24167Z" stroke="black" stroke-width="1.25" stroke-linecap="square"/>
<path d="M73.5 3.33333H58.5C57.5795 3.33333 56.8333 4.07952 56.8333 5V15C56.8333 15.9205 57.5795 16.6667 58.5 16.6667H73.5C74.4205 16.6667 75.1667 15.9205 75.1667 15V5C75.1667 4.07952 74.4205 3.33333 73.5 3.33333Z" stroke="black" stroke-width="1.66667" stroke-linecap="square"/>
<path d="M56.8333 8.33333H75.1667" stroke="black" stroke-width="1.66667" stroke-linecap="square"/>
<g clip-path="url(#clip0_2_73)">
<path d="M94 12.5C95.3807 12.5 96.5 11.3807 96.5 10C96.5 8.61929 95.3807 7.5 94 7.5C92.6193 7.5 91.5 8.61929 91.5 10C91.5 11.3807 92.6193 12.5 94 12.5Z" stroke="black" stroke-width="1.66667" stroke-linecap="square"/>
<path d="M100.167 12.5C100.056 12.7513 100.023 13.0302 100.072 13.3005C100.121 13.5708 100.25 13.8203 100.442 14.0167L100.492 14.0667C100.647 14.2215 100.77 14.4053 100.853 14.6076C100.937 14.8099 100.98 15.0268 100.98 15.2458C100.98 15.4649 100.937 15.6817 100.853 15.8841C100.77 16.0864 100.647 16.2702 100.492 16.425C100.337 16.58 100.153 16.7029 99.9507 16.7868C99.7484 16.8706 99.5315 16.9138 99.3125 16.9138C99.0935 16.9138 98.8766 16.8706 98.6743 16.7868C98.4719 16.7029 98.2881 16.58 98.1333 16.425L98.0833 16.375C97.8869 16.1829 97.6375 16.054 97.3672 16.005C97.0968 15.956 96.818 15.9891 96.5667 16.1C96.3202 16.2056 96.11 16.381 95.9619 16.6046C95.8139 16.8282 95.7344 17.0902 95.7333 17.3583V17.5C95.7333 17.942 95.5577 18.3659 95.2452 18.6785C94.9326 18.9911 94.5087 19.1667 94.0667 19.1667C93.6246 19.1667 93.2007 18.9911 92.8882 18.6785C92.5756 18.3659 92.4 17.942 92.4 17.5V17.425C92.3935 17.1492 92.3043 16.8817 92.1438 16.6572C91.9833 16.4328 91.7589 16.2619 91.5 16.1667C91.2487 16.0557 90.9698 16.0226 90.6995 16.0717C90.4292 16.1207 90.1797 16.2495 89.9833 16.4417L89.9333 16.4917C89.7785 16.6466 89.5947 16.7696 89.3924 16.8534C89.1901 16.9373 88.9732 16.9805 88.7542 16.9805C88.5351 16.9805 88.3183 16.9373 88.1159 16.8534C87.9136 16.7696 87.7298 16.6466 87.575 16.4917C87.42 16.3369 87.2971 16.1531 87.2132 15.9507C87.1294 15.7484 87.0862 15.5315 87.0862 15.3125C87.0862 15.0935 87.1294 14.8766 87.2132 14.6743C87.2971 14.4719 87.42 14.2881 87.575 14.1333L87.625 14.0833C87.8171 13.8869 87.946 13.6375 87.995 13.3672C88.044 13.0968 88.0109 12.818 87.9 12.5667C87.7944 12.3202 87.619 12.11 87.3954 11.9619C87.1718 11.8139 86.9098 11.7344 86.6417 11.7333H86.5C86.058 11.7333 85.634 11.5577 85.3215 11.2452C85.0089 10.9326 84.8333 10.5087 84.8333 10.0667C84.8333 9.62464 85.0089 9.20071 85.3215 8.88815C85.634 8.57559 86.058 8.4 86.5 8.4H86.575C86.8508 8.39355 87.1183 8.30426 87.3427 8.14376C87.5672 7.98325 87.7381 7.75894 87.8333 7.5C87.9443 7.24865 87.9774 6.96984 87.9283 6.69951C87.8793 6.42918 87.7504 6.17973 87.5583 5.98333L87.5083 5.93333C87.3534 5.77854 87.2304 5.59473 87.1466 5.3924C87.0627 5.19007 87.0195 4.97319 87.0195 4.75416C87.0195 4.53514 87.0627 4.31826 87.1466 4.11593C87.2304 3.9136 87.3534 3.72979 87.5083 3.575C87.6631 3.42004 87.8469 3.29711 88.0493 3.21323C88.2516 3.12936 88.4685 3.08619 88.6875 3.08619C88.9065 3.08619 89.1234 3.12936 89.3257 3.21323C89.5281 3.29711 89.7119 3.42004 89.8667 3.575L89.9167 3.625C90.1131 3.81711 90.3625 3.94599 90.6328 3.995C90.9032 4.04402 91.182 4.01093 91.4333 3.9H91.5C91.7465 3.79436 91.9567 3.61896 92.1047 3.39539C92.2528 3.17181 92.3323 2.90982 92.3333 2.64167V2.5C92.3333 2.05797 92.5089 1.63405 92.8215 1.32149C93.134 1.00893 93.558 0.833332 94 0.833332C94.442 0.833332 94.8659 1.00893 95.1785 1.32149C95.4911 1.63405 95.6667 2.05797 95.6667 2.5V2.575C95.6677 2.84315 95.7472 3.10514 95.8953 3.32872C96.0433 3.55229 96.2535 3.7277 96.5 3.83333C96.7513 3.94426 97.0302 3.97735 97.3005 3.92834C97.5708 3.87932 97.8203 3.75045 98.0167 3.55833L98.0667 3.50833C98.2215 3.35337 98.4053 3.23044 98.6076 3.14657C98.8099 3.06269 99.0268 3.01952 99.2458 3.01952C99.4649 3.01952 99.6817 3.06269 99.8841 3.14657C100.086 3.23044 100.27 3.35337 100.425 3.50833C100.58 3.66312 100.703 3.84693 100.787 4.04926C100.871 4.25159 100.914 4.46847 100.914 4.6875C100.914 4.90652 100.871 5.1234 100.787 5.32573C100.703 5.52806 100.58 5.71188 100.425 5.86666L100.375 5.91666C100.183 6.11306 100.054 6.36251 100.005 6.63284C99.956 6.90317 99.9891 7.18198 100.1 7.43333V7.5C100.206 7.74647 100.381 7.95668 100.605 8.10474C100.828 8.2528 101.09 8.33226 101.358 8.33333H101.5C101.942 8.33333 102.366 8.50893 102.679 8.82149C102.991 9.13405 103.167 9.55797 103.167 10C103.167 10.442 102.991 10.8659 102.679 11.1785C102.366 11.4911 101.942 11.6667 101.5 11.6667H101.425C101.157 11.6677 100.895 11.7472 100.671 11.8953C100.448 12.0433 100.272 12.2535 100.167 12.5Z" stroke="black" stroke-width="1.66667" stroke-linecap="square"/>
</g>
<path d="M129.5 2.5H114.5V17.5H129.5V2.5Z" stroke="black" stroke-width="1.25" stroke-linecap="square"/>
<path d="M128.25 12.5H115.75V16.6667H128.25V12.5Z" fill="black" stroke="black" stroke-width="1.25" stroke-linecap="square"/>
<path d="M119.5 3.33333V12.5" stroke="black" stroke-width="1.25" stroke-linecap="square"/>
<path d="M143.333 17.5V11.6667" stroke="black" stroke-width="1.66667" stroke-linecap="square"/>
<path d="M143.333 8.33333V2.5" stroke="black" stroke-width="1.66667" stroke-linecap="square"/>
<path d="M150 17.5V10" stroke="black" stroke-width="1.66667" stroke-linecap="square"/>
<path d="M150 6.66667V2.5" stroke="black" stroke-width="1.66667" stroke-linecap="square"/>
<path d="M156.667 17.5V13.3333" stroke="black" stroke-width="1.66667" stroke-linecap="square"/>
<path d="M156.667 10V2.5" stroke="black" stroke-width="1.66667" stroke-linecap="square"/>
<path d="M140.833 11.6667H145.833" stroke="black" stroke-width="1.66667" stroke-linecap="square"/>
<path d="M147.5 6.66667H152.5" stroke="black" stroke-width="1.66667" stroke-linecap="square"/>
<path d="M154.167 13.3333H159.167" stroke="black" stroke-width="1.66667" stroke-linecap="square"/>
<path d="M176.333 2.5H170.5V8.33333H176.333V2.5Z" stroke="black" stroke-width="2" stroke-linecap="square"/>
<path d="M185.5 2.5H179.667V8.33333H185.5V2.5Z" stroke="black" stroke-width="2" stroke-linecap="square"/>
<path d="M185.5 11.6667H179.667V17.5H185.5V11.6667Z" stroke="black" stroke-width="2" stroke-linecap="square"/>
<path d="M176.333 11.6667H170.5V17.5H176.333V11.6667Z" stroke="black" stroke-width="2" stroke-linecap="square"/>
<path d="M214 1H197V18H214V1Z" stroke="black" stroke-width="1.25" stroke-linecap="square"/>
<path d="M213 2H197V7H213V2Z" fill="black" stroke="black" stroke-width="1.25" stroke-linecap="square"/>
<path d="M2.5 35.5L10 29.6667L17.5 35.5V44.6667C17.5 45.1087 17.3244 45.5326 17.0118 45.8452C16.6993 46.1577 16.2754 46.3333 15.8333 46.3333H4.16667C3.72464 46.3333 3.30072 46.1577 2.98816 45.8452C2.67559 45.5326 2.5 45.1087 2.5 44.6667V35.5Z" stroke="black" stroke-width="1.66667" stroke-linecap="square"/>
<path d="M7.5 46.3333V38H12.5V46.3333" stroke="black" stroke-width="1.66667" stroke-linecap="square"/>
<path d="M43.8333 30.5H32.1667C31.2462 30.5 30.5 31.2462 30.5 32.1667V43.8333C30.5 44.7538 31.2462 45.5 32.1667 45.5H43.8333C44.7538 45.5 45.5 44.7538 45.5 43.8333V32.1667C45.5 31.2462 44.7538 30.5 43.8333 30.5Z" stroke="black" stroke-width="2" stroke-linecap="round" stroke-linejoin="round"/>
<path d="M30.5 35.5H45.5" stroke="black" stroke-width="2" stroke-linecap="round" stroke-linejoin="round"/>
<path d="M35.5 45.5V35.5" stroke="black" stroke-width="2" stroke-linecap="round" stroke-linejoin="round"/>
<path d="M58.5 38H73.5" stroke="black" stroke-width="1.66667" stroke-linecap="square"/>
<path d="M58.5 33H73.5" stroke="black" stroke-width="1.66667" stroke-linecap="square"/>
<path d="M58.5 43H73.5" stroke="black" stroke-width="1.66667" stroke-linecap="square"/>
<g clip-path="url(#clip1_2_73)">
<path d="M94.8333 29.6667L86.5 39.6667H94L93.1667 46.3333L101.5 36.3333H94L94.8333 29.6667Z" stroke="black" stroke-width="1.25" stroke-linecap="square"/>
</g>
<path d="M129.5 41.3333V34.6667C129.5 34.3744 129.423 34.0873 129.276 33.8343C129.13 33.5813 128.92 33.3711 128.667 33.225L122.833 29.8917C122.58 29.7454 122.293 29.6684 122 29.6684C121.707 29.6684 121.42 29.7454 121.167 29.8917L115.333 33.225C115.08 33.3711 114.87 33.5813 114.724 33.8343C114.577 34.0873 114.5 34.3744 114.5 34.6667V41.3333C114.5 41.6256 114.577 41.9127 114.724 42.1657C114.87 42.4187 115.08 42.6289 115.333 42.775L121.167 46.1083C121.42 46.2546 121.707 46.3316 122 46.3316C122.293 46.3316 122.58 46.2546 122.833 46.1083L128.667 42.775C128.92 42.6289 129.13 42.4187 129.276 42.1657C129.423 41.9127 129.5 41.6256 129.5 41.3333Z" stroke="black" stroke-width="2" stroke-linecap="square"/>
<path d="M114.725 33.8L122 38.0083L129.275 33.8" stroke="black" stroke-width="2" stroke-linecap="square"/>
<path d="M122 46.4V38" stroke="black" stroke-width="2" stroke-linecap="square"/>
<path d="M143.333 33.8333V31.3333H156.667V33.8333" stroke="black" stroke-width="1.66667" stroke-linecap="square"/>
<path d="M147.5 44.6667H152.5" stroke="black" stroke-width="1.66667" stroke-linecap="square"/>
<path d="M150 31.3333V44.6667" stroke="black" stroke-width="1.66667" stroke-linecap="square"/>
<path d="M183.833 31.3333H172.167C171.246 31.3333 170.5 32.0795 170.5 33V44.6667C170.5 45.5871 171.246 46.3333 172.167 46.3333H183.833C184.754 46.3333 185.5 45.5871 185.5 44.6667V33C185.5 32.0795 184.754 31.3333 183.833 31.3333Z" stroke="black" stroke-width="1.66667" stroke-linecap="square"/>
<path d="M181.333 29.6667V33" stroke="black" stroke-width="1.66667" stroke-linecap="square"/>
<path d="M174.667 29.6667V33" stroke="black" stroke-width="1.66667" stroke-linecap="square"/>
<path d="M170.5 36.3333H185.5" stroke="black" stroke-width="1.66667" stroke-linecap="square"/>
<path d="M213.5 30.5H200.167C199.246 30.5 198.5 31.2462 198.5 32.1667V43.8333C198.5 44.7538 199.246 45.5 200.167 45.5H213.5C214.42 45.5 215.167 44.7538 215.167 43.8333V32.1667C215.167 31.2462 214.42 30.5 213.5 30.5Z" stroke="black" stroke-width="1.25" stroke-linecap="square"/>
<path d="M203.083 36.3333C203.774 36.3333 204.333 35.7737 204.333 35.0833C204.333 34.393 203.774 33.8333 203.083 33.8333C202.393 33.8333 201.833 34.393 201.833 35.0833C201.833 35.7737 202.393 36.3333 203.083 36.3333Z" stroke="black" stroke-width="1.25" stroke-linecap="square"/>
<path d="M213.5 40.5L209.333 36.3333L200.167 45.5" stroke="black" stroke-width="1.25" stroke-linecap="square"/>
<g clip-path="url(#clip2_2_73)">
<path d="M15 62.6667C15 61.3406 14.4732 60.0688 13.5355 59.1311C12.5979 58.1935 11.3261 57.6667 10 57.6667C8.67392 57.6667 7.40215 58.1935 6.46447 59.1311C5.52678 60.0688 5 61.3406 5 62.6667C5 68.5 2.5 70.1667 2.5 70.1667H17.5C17.5 70.1667 15 68.5 15 62.6667Z" stroke="black" stroke-width="1.66667" stroke-linecap="square"/>
<path d="M11.4417 73.5C11.2952 73.7526 11.0849 73.9622 10.8319 74.1079C10.5788 74.2537 10.292 74.3304 10 74.3304C9.70802 74.3304 9.42116 74.2537 9.16815 74.1079C8.91513 73.9622 8.70484 73.7526 8.55833 73.5" stroke="black" stroke-width="1.66667" stroke-linecap="square"/>
</g>
<path d="M29.6667 58.5H34.6667C35.5507 58.5 36.3986 58.8512 37.0237 59.4763C37.6488 60.1014 38 60.9493 38 61.8333V73.5C38 72.837 37.7366 72.2011 37.2678 71.7322C36.7989 71.2634 36.163 71 35.5 71H29.6667V58.5Z" stroke="black" stroke-width="2" stroke-linecap="square"/>
<path d="M46.3333 58.5H41.3333C40.4493 58.5 39.6014 58.8512 38.9763 59.4763C38.3512 60.1014 38 60.9493 38 61.8333V73.5C38 72.837 38.2634 72.2011 38.7322 71.7322C39.2011 71.2634 39.837 71 40.5 71H46.3333V58.5Z" stroke="black" stroke-width="2" stroke-linecap="square"/>
<defs>
<clipPath id="clip0_2_73">
<rect width="20" height="20" fill="white" transform="translate(84)"/>
</clipPath>
<clipPath id="clip1_2_73">
<rect width="20" height="20" fill="white" transform="translate(84 28)"/>
</clipPath>
<clipPath id="clip2_2_73">
<rect width="20" height="20" fill="white" transform="translate(0 56)"/>
</clipPath>
</defs>
</svg>
