<svg width="74" height="68" viewBox="0 0 74 68" fill="none" xmlns="http://www.w3.org/2000/svg">
<g clip-path="url(#clip0_709_654)">
<rect width="74" height="68" fill="white"/>
<rect width="74" height="68" fill="white"/>
<rect x="6" y="6" width="62" height="56" fill="#D5D9DF"/>
<path d="M10.5938 41H63.4086V57.3333H10.5938V41Z" fill="white"/>
<path d="M20.3738 47.5H19.8453C19.8141 47.348 19.7594 47.2145 19.6813 47.0994C19.6046 46.9844 19.5108 46.8878 19.4 46.8097C19.2907 46.7301 19.1692 46.6705 19.0357 46.6307C18.9022 46.5909 18.763 46.571 18.6181 46.571C18.3539 46.571 18.1145 46.6378 17.9 46.7713C17.687 46.9048 17.5172 47.1016 17.3908 47.3615C17.2658 47.6214 17.2033 47.9403 17.2033 48.3182C17.2033 48.696 17.2658 49.0149 17.3908 49.2749C17.5172 49.5348 17.687 49.7315 17.9 49.8651C18.1145 49.9986 18.3539 50.0653 18.6181 50.0653C18.763 50.0653 18.9022 50.0455 19.0357 50.0057C19.1692 49.9659 19.2907 49.907 19.4 49.8288C19.5108 49.7493 19.6046 49.652 19.6813 49.5369C19.7594 49.4205 19.8141 49.2869 19.8453 49.1364H20.3738C20.334 49.3594 20.2615 49.5589 20.1564 49.7351C20.0513 49.9112 19.9206 50.0611 19.7644 50.1847C19.6081 50.3068 19.4327 50.3999 19.2381 50.4638C19.0449 50.5277 18.8382 50.5597 18.6181 50.5597C18.2459 50.5597 17.915 50.4688 17.6252 50.2869C17.3354 50.1051 17.1074 49.8466 16.9412 49.5114C16.775 49.1761 16.6919 48.7784 16.6919 48.3182C16.6919 47.858 16.775 47.4602 16.9412 47.125C17.1074 46.7898 17.3354 46.5312 17.6252 46.3494C17.915 46.1676 18.2459 46.0767 18.6181 46.0767C18.8382 46.0767 19.0449 46.1087 19.2381 46.1726C19.4327 46.2365 19.6081 46.3303 19.7644 46.4538C19.9206 46.576 20.0513 46.7251 20.1564 46.9013C20.2615 47.076 20.334 47.2756 20.3738 47.5ZM22.1225 50.5767C21.9151 50.5767 21.7269 50.5376 21.5579 50.4595C21.3888 50.38 21.2546 50.2656 21.1552 50.1165C21.0558 49.9659 21.006 49.7841 21.006 49.571C21.006 49.3835 21.043 49.2315 21.1168 49.1151C21.1907 48.9972 21.2894 48.9048 21.413 48.8381C21.5366 48.7713 21.6729 48.7216 21.8221 48.6889C21.9727 48.6548 22.1239 48.6278 22.2759 48.608C22.4748 48.5824 22.636 48.5632 22.7596 48.5504C22.8846 48.5362 22.9755 48.5128 23.0323 48.4801C23.0906 48.4474 23.1197 48.3906 23.1197 48.3097V48.2926C23.1197 48.0824 23.0621 47.919 22.9471 47.8026C22.8335 47.6861 22.6609 47.6278 22.4293 47.6278C22.1893 47.6278 22.0011 47.6804 21.8647 47.7855C21.7283 47.8906 21.6325 48.0028 21.5771 48.1222L21.0998 47.9517C21.185 47.7528 21.2987 47.598 21.4407 47.4872C21.5842 47.375 21.7404 47.2969 21.9094 47.2528C22.0799 47.2074 22.2475 47.1847 22.4123 47.1847C22.5174 47.1847 22.6381 47.1974 22.7745 47.223C22.9123 47.2472 23.0451 47.2976 23.1729 47.3743C23.3022 47.451 23.4094 47.5668 23.4947 47.7216C23.5799 47.8764 23.6225 48.0838 23.6225 48.3438V50.5H23.1197V50.0568H23.0941C23.06 50.1278 23.0032 50.2038 22.9237 50.2848C22.8441 50.3658 22.7383 50.4347 22.6062 50.4915C22.4741 50.5483 22.3129 50.5767 22.1225 50.5767ZM22.1992 50.125C22.3981 50.125 22.5657 50.0859 22.7021 50.0078C22.8398 49.9297 22.9435 49.8288 23.0131 49.7053C23.0842 49.5817 23.1197 49.4517 23.1197 49.3153V48.8551C23.0984 48.8807 23.0515 48.9041 22.979 48.9254C22.908 48.9453 22.8256 48.9631 22.7319 48.9787C22.6396 48.9929 22.5494 49.0057 22.4613 49.017C22.3746 49.027 22.3043 49.0355 22.2504 49.0426C22.1197 49.0597 21.9975 49.0874 21.8839 49.1257C21.7717 49.1626 21.6808 49.2187 21.6112 49.294C21.543 49.3679 21.5089 49.4687 21.5089 49.5966C21.5089 49.7713 21.5735 49.9034 21.7028 49.9929C21.8335 50.081 21.9989 50.125 22.1992 50.125ZM25.9636 47.2273V47.6534H24.2676V47.2273H25.9636ZM24.7619 46.4432H25.2647V49.5625C25.2647 49.7045 25.2853 49.8111 25.3265 49.8821C25.3691 49.9517 25.4231 49.9986 25.4885 50.0227C25.5552 50.0455 25.6255 50.0568 25.6994 50.0568C25.7548 50.0568 25.8002 50.054 25.8358 50.0483C25.8713 50.0412 25.8997 50.0355 25.921 50.0312L26.0233 50.483C25.9892 50.4957 25.9416 50.5085 25.8805 50.5213C25.8194 50.5355 25.742 50.5426 25.6483 50.5426C25.5062 50.5426 25.367 50.5121 25.2306 50.451C25.0957 50.3899 24.9835 50.2969 24.894 50.1719C24.8059 50.0469 24.7619 49.8892 24.7619 49.6989V46.4432ZM28.057 50.5682C27.7417 50.5682 27.4696 50.4986 27.2409 50.3594C27.0137 50.2188 26.8382 50.0227 26.7147 49.7713C26.5925 49.5185 26.5314 49.2244 26.5314 48.8892C26.5314 48.554 26.5925 48.2585 26.7147 48.0028C26.8382 47.7457 27.0101 47.5455 27.2303 47.402C27.4519 47.2571 27.7104 47.1847 28.0059 47.1847C28.1763 47.1847 28.3446 47.2131 28.5108 47.2699C28.677 47.3267 28.8283 47.419 28.9647 47.5469C29.101 47.6733 29.2097 47.8409 29.2907 48.0497C29.3716 48.2585 29.4121 48.5156 29.4121 48.821V49.0341H26.8894V48.5994H28.9007C28.9007 48.4148 28.8638 48.25 28.79 48.1051C28.7175 47.9602 28.6138 47.8459 28.4789 47.7621C28.3453 47.6783 28.1877 47.6364 28.0059 47.6364C27.8056 47.6364 27.6323 47.6861 27.486 47.7855C27.3411 47.8835 27.2296 48.0114 27.1515 48.169C27.0733 48.3267 27.0343 48.4957 27.0343 48.6761V48.9659C27.0343 49.2131 27.0769 49.4226 27.1621 49.5945C27.2488 49.7649 27.3688 49.8949 27.5222 49.9844C27.6756 50.0724 27.8539 50.1165 28.057 50.1165C28.1891 50.1165 28.3084 50.098 28.415 50.0611C28.5229 50.0227 28.6159 49.9659 28.6941 49.8906C28.7722 49.8139 28.8326 49.7187 28.8752 49.6051L29.361 49.7415C29.3098 49.9062 29.2239 50.0511 29.1032 50.1761C28.9824 50.2997 28.8333 50.3963 28.6557 50.4659C28.4782 50.5341 28.2786 50.5682 28.057 50.5682ZM31.498 51.7955C31.2551 51.7955 31.0463 51.7642 30.8716 51.7017C30.6969 51.6406 30.5513 51.5597 30.4348 51.4588C30.3198 51.3594 30.2282 51.2528 30.16 51.1392L30.5605 50.858C30.606 50.9176 30.6635 50.9858 30.7331 51.0625C30.8027 51.1406 30.8979 51.2081 31.0186 51.2649C31.1408 51.3232 31.3006 51.3523 31.498 51.3523C31.7623 51.3523 31.9803 51.2884 32.1522 51.1605C32.324 51.0327 32.41 50.8324 32.41 50.5597V49.8949H32.3674C32.3304 49.9545 32.2779 50.0284 32.2097 50.1165C32.1429 50.2031 32.0463 50.2805 31.9199 50.3487C31.7949 50.4155 31.6259 50.4489 31.4128 50.4489C31.1486 50.4489 30.9114 50.3864 30.7012 50.2614C30.4924 50.1364 30.3269 49.9545 30.2047 49.7159C30.084 49.4773 30.0236 49.1875 30.0236 48.8466C30.0236 48.5114 30.0826 48.2195 30.2005 47.9709C30.3184 47.7209 30.4824 47.5277 30.6926 47.3913C30.9029 47.2536 31.1458 47.1847 31.4213 47.1847C31.6344 47.1847 31.8034 47.2202 31.9284 47.2912C32.0549 47.3608 32.1515 47.4403 32.2182 47.5298C32.2864 47.6179 32.339 47.6903 32.3759 47.7472H32.427V47.2273H32.9128V50.5938C32.9128 50.875 32.8489 51.1037 32.7211 51.2798C32.5946 51.4574 32.4242 51.5874 32.2097 51.6697C31.9966 51.7536 31.7594 51.7955 31.498 51.7955ZM31.481 49.9972C31.6827 49.9972 31.8532 49.951 31.9924 49.8587C32.1316 49.7663 32.2374 49.6335 32.3098 49.4602C32.3823 49.2869 32.4185 49.0795 32.4185 48.8381C32.4185 48.6023 32.383 48.3942 32.312 48.2138C32.2409 48.0334 32.1358 47.892 31.9966 47.7898C31.8574 47.6875 31.6855 47.6364 31.481 47.6364C31.2679 47.6364 31.0904 47.6903 30.9483 47.7983C30.8077 47.9062 30.7019 48.0511 30.6309 48.233C30.5613 48.4148 30.5265 48.6165 30.5265 48.8381C30.5265 49.0653 30.562 49.2663 30.633 49.4411C30.7054 49.6143 30.812 49.7507 30.9526 49.8501C31.0946 49.9482 31.2708 49.9972 31.481 49.9972ZM35.1628 50.5682C34.8674 50.5682 34.6081 50.4979 34.3851 50.3572C34.1635 50.2166 33.9902 50.0199 33.8652 49.767C33.7417 49.5142 33.6799 49.2187 33.6799 48.8807C33.6799 48.5398 33.7417 48.2422 33.8652 47.9879C33.9902 47.7337 34.1635 47.5362 34.3851 47.3956C34.6081 47.255 34.8674 47.1847 35.1628 47.1847C35.4583 47.1847 35.7168 47.255 35.9384 47.3956C36.1614 47.5362 36.3347 47.7337 36.4583 47.9879C36.5833 48.2422 36.6458 48.5398 36.6458 48.8807C36.6458 49.2187 36.5833 49.5142 36.4583 49.767C36.3347 50.0199 36.1614 50.2166 35.9384 50.3572C35.7168 50.4979 35.4583 50.5682 35.1628 50.5682ZM35.1628 50.1165C35.3873 50.1165 35.5719 50.0589 35.7168 49.9439C35.8617 49.8288 35.9689 49.6776 36.0385 49.4901C36.1081 49.3026 36.1429 49.0994 36.1429 48.8807C36.1429 48.6619 36.1081 48.4581 36.0385 48.2692C35.9689 48.0803 35.8617 47.9276 35.7168 47.8111C35.5719 47.6946 35.3873 47.6364 35.1628 47.6364C34.9384 47.6364 34.7537 47.6946 34.6088 47.8111C34.464 47.9276 34.3567 48.0803 34.2871 48.2692C34.2175 48.4581 34.1827 48.6619 34.1827 48.8807C34.1827 49.0994 34.2175 49.3026 34.2871 49.4901C34.3567 49.6776 34.464 49.8288 34.6088 49.9439C34.7537 50.0589 34.9384 50.1165 35.1628 50.1165ZM37.4134 50.5V47.2273H37.8991V47.7216H37.9332C37.9929 47.5597 38.1009 47.4283 38.2571 47.3274C38.4134 47.2266 38.5895 47.1761 38.7855 47.1761C38.8224 47.1761 38.8686 47.1768 38.924 47.1783C38.9794 47.1797 39.0213 47.1818 39.0497 47.1847V47.696C39.0327 47.6918 38.9936 47.6854 38.9325 47.6768C38.8729 47.6669 38.8097 47.6619 38.7429 47.6619C38.5838 47.6619 38.4418 47.6953 38.3168 47.7621C38.1932 47.8274 38.0952 47.9183 38.0227 48.0348C37.9517 48.1499 37.9162 48.2812 37.9162 48.429V50.5H37.4134ZM40.0692 51.7273C39.984 51.7273 39.908 51.7202 39.8413 51.706C39.7745 51.6932 39.7283 51.6804 39.7028 51.6676L39.8306 51.2244C39.9528 51.2557 40.0607 51.267 40.1545 51.2585C40.2482 51.25 40.3313 51.2081 40.4038 51.1328C40.4776 51.0589 40.5451 50.9389 40.6062 50.7727L40.6999 50.517L39.4897 47.2273H40.0352L40.9386 49.8352H40.9727L41.8761 47.2273H42.4215L41.0323 50.9773C40.9698 51.1463 40.8924 51.2862 40.8001 51.397C40.7077 51.5092 40.6005 51.5923 40.4783 51.6463C40.3576 51.7003 40.2212 51.7273 40.0692 51.7273ZM44.9517 48.3182C44.9517 47.7812 45.0213 47.2876 45.1605 46.8374C45.3011 46.3857 45.5014 45.9702 45.7614 45.5909H46.2045C46.1023 45.7315 46.0064 45.9048 45.9169 46.1108C45.8288 46.3153 45.7514 46.5405 45.6847 46.7862C45.6179 47.0305 45.5653 47.2834 45.527 47.5447C45.4901 47.8061 45.4716 48.0639 45.4716 48.3182C45.4716 48.6562 45.5043 48.9993 45.5696 49.3473C45.6349 49.6953 45.723 50.0185 45.8338 50.3168C45.9446 50.6151 46.0682 50.858 46.2045 51.0455H45.7614C45.5014 50.6662 45.3011 50.2514 45.1605 49.8011C45.0213 49.3494 44.9517 48.8551 44.9517 48.3182ZM48.3613 50.5597C48.0403 50.5597 47.7669 50.4723 47.541 50.2976C47.3152 50.1214 47.1426 49.8665 47.0233 49.5327C46.9039 49.1974 46.8443 48.7926 46.8443 48.3182C46.8443 47.8466 46.9039 47.4439 47.0233 47.1101C47.144 46.7749 47.3173 46.5192 47.5431 46.343C47.7704 46.1655 48.0431 46.0767 48.3613 46.0767C48.6795 46.0767 48.9515 46.1655 49.1774 46.343C49.4047 46.5192 49.5779 46.7749 49.6973 47.1101C49.818 47.4439 49.8784 47.8466 49.8784 48.3182C49.8784 48.7926 49.8187 49.1974 49.6994 49.5327C49.5801 49.8665 49.4075 50.1214 49.1816 50.2976C48.9558 50.4723 48.6824 50.5597 48.3613 50.5597ZM48.3613 50.0909C48.6795 50.0909 48.9267 49.9375 49.1028 49.6307C49.2789 49.3239 49.367 48.8864 49.367 48.3182C49.367 47.9403 49.3265 47.6186 49.2456 47.353C49.166 47.0874 49.051 46.8849 48.9004 46.7457C48.7512 46.6065 48.5716 46.5369 48.3613 46.5369C48.046 46.5369 47.7995 46.6925 47.622 47.0036C47.4444 47.3132 47.3556 47.7514 47.3556 48.3182C47.3556 48.696 47.3954 49.017 47.475 49.2812C47.5545 49.5455 47.6689 49.7464 47.818 49.8842C47.9686 50.022 48.1497 50.0909 48.3613 50.0909ZM51.7704 48.3182C51.7704 48.8551 51.7001 49.3494 51.5595 49.8011C51.4203 50.2514 51.2207 50.6662 50.9608 51.0455H50.5176C50.6199 50.9048 50.715 50.7315 50.8031 50.5256C50.8926 50.321 50.9707 50.0966 51.0375 49.8523C51.1042 49.6065 51.1561 49.353 51.193 49.0916C51.2314 48.8288 51.2505 48.571 51.2505 48.3182C51.2505 47.9801 51.2179 47.6371 51.1525 47.2891C51.0872 46.9411 50.9991 46.6179 50.8883 46.3196C50.7775 46.0213 50.6539 45.7784 50.5176 45.5909H50.9608C51.2207 45.9702 51.4203 46.3857 51.5595 46.8374C51.7001 47.2876 51.7704 47.7812 51.7704 48.3182Z" fill="#5B5B5B"/>
</g>
<defs>
<clipPath id="clip0_709_654">
<rect width="74" height="68" fill="white"/>
</clipPath>
</defs>
</svg>
