<svg width="74" height="68" viewBox="0 0 74 68" fill="none" xmlns="http://www.w3.org/2000/svg">
<g clip-path="url(#clip0_1_555)">
<rect width="74" height="68" fill="white"/>
<rect width="74" height="68" fill="white"/>
<rect x="4" y="7" width="66" height="39.5357" fill="#D9D9D9"/>
<path d="M4 46.4614H70V60.9999H4V46.4614Z" fill="white"/>
<path d="M23.7208 52.5754H23.1924C23.1612 52.4235 23.1065 52.2899 23.0284 52.1749C22.9517 52.0598 22.8579 51.9632 22.7471 51.8851C22.6377 51.8056 22.5163 51.7459 22.3828 51.7061C22.2492 51.6663 22.11 51.6465 21.9651 51.6465C21.7009 51.6465 21.4616 51.7132 21.2471 51.8467C21.034 51.9803 20.8643 52.177 20.7379 52.4369C20.6129 52.6969 20.5504 53.0158 20.5504 53.3936C20.5504 53.7715 20.6129 54.0904 20.7379 54.3503C20.8643 54.6102 21.034 54.807 21.2471 54.9405C21.4616 55.074 21.7009 55.1408 21.9651 55.1408C22.11 55.1408 22.2492 55.1209 22.3828 55.0811C22.5163 55.0413 22.6377 54.9824 22.7471 54.9043C22.8579 54.8247 22.9517 54.7274 23.0284 54.6124C23.1065 54.4959 23.1612 54.3624 23.1924 54.2118H23.7208C23.6811 54.4348 23.6086 54.6344 23.5035 54.8105C23.3984 54.9867 23.2677 55.1365 23.1115 55.2601C22.9552 55.3823 22.7798 55.4753 22.5852 55.5392C22.392 55.6031 22.1853 55.6351 21.9651 55.6351C21.593 55.6351 21.262 55.5442 20.9722 55.3624C20.6825 55.1806 20.4545 54.922 20.2883 54.5868C20.1221 54.2516 20.039 53.8538 20.039 53.3936C20.039 52.9334 20.1221 52.5357 20.2883 52.2004C20.4545 51.8652 20.6825 51.6067 20.9722 51.4249C21.262 51.2431 21.593 51.1521 21.9651 51.1521C22.1853 51.1521 22.392 51.1841 22.5852 51.248C22.7798 51.3119 22.9552 51.4057 23.1115 51.5293C23.2677 51.6514 23.3984 51.8006 23.5035 51.9767C23.6086 52.1514 23.6811 52.351 23.7208 52.5754ZM25.4696 55.6521C25.2622 55.6521 25.074 55.6131 24.905 55.535C24.7359 55.4554 24.6017 55.3411 24.5023 55.1919C24.4028 55.0413 24.3531 54.8595 24.3531 54.6465C24.3531 54.459 24.39 54.307 24.4639 54.1905C24.5378 54.0726 24.6365 53.9803 24.7601 53.9135C24.8836 53.8467 25.02 53.797 25.1692 53.7644C25.3197 53.7303 25.471 53.7033 25.623 53.6834C25.8219 53.6578 25.9831 53.6386 26.1067 53.6259C26.2317 53.6117 26.3226 53.5882 26.3794 53.5556C26.4376 53.5229 26.4667 53.4661 26.4667 53.3851V53.3681C26.4667 53.1578 26.4092 52.9945 26.2942 52.878C26.1805 52.7615 26.0079 52.7033 25.7764 52.7033C25.5363 52.7033 25.3481 52.7558 25.2118 52.861C25.0754 52.9661 24.9795 53.0783 24.9241 53.1976L24.4469 53.0271C24.5321 52.8283 24.6457 52.6735 24.7878 52.5627C24.9312 52.4504 25.0875 52.3723 25.2565 52.3283C25.427 52.2828 25.5946 52.2601 25.7594 52.2601C25.8645 52.2601 25.9852 52.2729 26.1216 52.2985C26.2594 52.3226 26.3922 52.373 26.52 52.4497C26.6493 52.5264 26.7565 52.6422 26.8417 52.797C26.927 52.9519 26.9696 53.1592 26.9696 53.4192V55.5754H26.4667V55.1323H26.4412C26.4071 55.2033 26.3503 55.2793 26.2707 55.3602C26.1912 55.4412 26.0854 55.5101 25.9532 55.5669C25.8211 55.6237 25.6599 55.6521 25.4696 55.6521ZM25.5463 55.2004C25.7452 55.2004 25.9128 55.1614 26.0491 55.0833C26.1869 55.0051 26.2906 54.9043 26.3602 54.7807C26.4312 54.6571 26.4667 54.5271 26.4667 54.3908V53.9306C26.4454 53.9561 26.3986 53.9796 26.3261 54.0009C26.2551 54.0208 26.1727 54.0385 26.079 54.0541C25.9866 54.0683 25.8964 54.0811 25.8084 54.0925C25.7217 54.1024 25.6514 54.111 25.5974 54.1181C25.4667 54.1351 25.3446 54.1628 25.2309 54.2011C25.1187 54.2381 25.0278 54.2942 24.9582 54.3695C24.89 54.4433 24.8559 54.5442 24.8559 54.672C24.8559 54.8467 24.9206 54.9788 25.0498 55.0683C25.1805 55.1564 25.346 55.2004 25.5463 55.2004ZM29.3107 52.3027V52.7288H27.6146V52.3027H29.3107ZM28.109 51.5186H28.6118V54.6379C28.6118 54.78 28.6324 54.8865 28.6736 54.9575C28.7162 55.0271 28.7702 55.074 28.8355 55.0982C28.9023 55.1209 28.9726 55.1323 29.0465 55.1323C29.1019 55.1323 29.1473 55.1294 29.1828 55.1237C29.2183 55.1166 29.2468 55.111 29.2681 55.1067L29.3703 55.5584C29.3362 55.5712 29.2887 55.584 29.2276 55.5967C29.1665 55.611 29.0891 55.6181 28.9953 55.6181C28.8533 55.6181 28.7141 55.5875 28.5777 55.5264C28.4428 55.4654 28.3306 55.3723 28.2411 55.2473C28.153 55.1223 28.109 54.9646 28.109 54.7743V51.5186ZM31.4041 55.6436C31.0887 55.6436 30.8167 55.574 30.588 55.4348C30.3607 55.2942 30.1853 55.0982 30.0617 54.8467C29.9396 54.5939 29.8785 54.2999 29.8785 53.9646C29.8785 53.6294 29.9396 53.334 30.0617 53.0783C30.1853 52.8212 30.3572 52.6209 30.5774 52.4774C30.799 52.3325 31.0575 52.2601 31.3529 52.2601C31.5234 52.2601 31.6917 52.2885 31.8579 52.3453C32.0241 52.4021 32.1754 52.4945 32.3117 52.6223C32.4481 52.7487 32.5568 52.9163 32.6377 53.1252C32.7187 53.334 32.7592 53.5911 32.7592 53.8965V54.1095H30.2365V53.6749H32.2478C32.2478 53.4902 32.2109 53.3254 32.137 53.1806C32.0646 53.0357 31.9609 52.9213 31.8259 52.8375C31.6924 52.7537 31.5347 52.7118 31.3529 52.7118C31.1526 52.7118 30.9794 52.7615 30.833 52.861C30.6882 52.959 30.5767 53.0868 30.4985 53.2445C30.4204 53.4021 30.3813 53.5712 30.3813 53.7516V54.0413C30.3813 54.2885 30.424 54.498 30.5092 54.6699C30.5958 54.8404 30.7159 54.9703 30.8693 55.0598C31.0227 55.1479 31.2009 55.1919 31.4041 55.1919C31.5362 55.1919 31.6555 55.1735 31.762 55.1365C31.87 55.0982 31.963 55.0413 32.0411 54.9661C32.1193 54.8894 32.1796 54.7942 32.2222 54.6806L32.708 54.8169C32.6569 54.9817 32.571 55.1266 32.4502 55.2516C32.3295 55.3752 32.1803 55.4717 32.0028 55.5413C31.8252 55.6095 31.6257 55.6436 31.4041 55.6436ZM34.8451 56.8709C34.6022 56.8709 34.3934 56.8396 34.2187 56.7771C34.044 56.7161 33.8984 56.6351 33.7819 56.5342C33.6669 56.4348 33.5752 56.3283 33.507 56.2146L33.9076 55.9334C33.9531 55.9931 34.0106 56.0612 34.0802 56.1379C34.1498 56.2161 34.245 56.2835 34.3657 56.3404C34.4879 56.3986 34.6477 56.4277 34.8451 56.4277C35.1093 56.4277 35.3274 56.3638 35.4992 56.236C35.6711 56.1081 35.757 55.9078 35.757 55.6351V54.9703H35.7144C35.6775 55.03 35.6249 55.1038 35.5568 55.1919C35.49 55.2786 35.3934 55.356 35.267 55.4242C35.142 55.4909 34.973 55.5243 34.7599 55.5243C34.4957 55.5243 34.2585 55.4618 34.0482 55.3368C33.8394 55.2118 33.674 55.03 33.5518 54.7913C33.4311 54.5527 33.3707 54.2629 33.3707 53.922C33.3707 53.5868 33.4296 53.2949 33.5475 53.0463C33.6654 52.7963 33.8295 52.6031 34.0397 52.4668C34.2499 52.329 34.4928 52.2601 34.7684 52.2601C34.9815 52.2601 35.1505 52.2956 35.2755 52.3666C35.4019 52.4362 35.4985 52.5158 35.5653 52.6053C35.6335 52.6933 35.686 52.7658 35.723 52.8226H35.7741V52.3027H36.2599V55.6692C36.2599 55.9504 36.196 56.1791 36.0681 56.3553C35.9417 56.5328 35.7713 56.6628 35.5568 56.7452C35.3437 56.829 35.1065 56.8709 34.8451 56.8709ZM34.8281 55.0726C35.0298 55.0726 35.2002 55.0264 35.3394 54.9341C35.4786 54.8418 35.5845 54.709 35.6569 54.5357C35.7294 54.3624 35.7656 54.155 35.7656 53.9135C35.7656 53.6777 35.7301 53.4696 35.659 53.2892C35.588 53.1088 35.4829 52.9675 35.3437 52.8652C35.2045 52.7629 35.0326 52.7118 34.8281 52.7118C34.615 52.7118 34.4374 52.7658 34.2954 52.8737C34.1548 52.9817 34.049 53.1266 33.9779 53.3084C33.9083 53.4902 33.8735 53.6919 33.8735 53.9135C33.8735 54.1408 33.909 54.3418 33.9801 54.5165C34.0525 54.6898 34.159 54.8261 34.2997 54.9256C34.4417 55.0236 34.6178 55.0726 34.8281 55.0726ZM38.5099 55.6436C38.2144 55.6436 37.9552 55.5733 37.7322 55.4327C37.5106 55.2921 37.3373 55.0953 37.2123 54.8425C37.0887 54.5896 37.0269 54.2942 37.0269 53.9561C37.0269 53.6152 37.0887 53.3176 37.2123 53.0634C37.3373 52.8091 37.5106 52.6117 37.7322 52.471C37.9552 52.3304 38.2144 52.2601 38.5099 52.2601C38.8053 52.2601 39.0639 52.3304 39.2855 52.471C39.5085 52.6117 39.6818 52.8091 39.8053 53.0634C39.9303 53.3176 39.9928 53.6152 39.9928 53.9561C39.9928 54.2942 39.9303 54.5896 39.8053 54.8425C39.6818 55.0953 39.5085 55.2921 39.2855 55.4327C39.0639 55.5733 38.8053 55.6436 38.5099 55.6436ZM38.5099 55.1919C38.7343 55.1919 38.919 55.1344 39.0639 55.0193C39.2088 54.9043 39.316 54.753 39.3856 54.5655C39.4552 54.378 39.49 54.1749 39.49 53.9561C39.49 53.7374 39.4552 53.5335 39.3856 53.3446C39.316 53.1557 39.2088 53.003 39.0639 52.8865C38.919 52.77 38.7343 52.7118 38.5099 52.7118C38.2855 52.7118 38.1008 52.77 37.9559 52.8865C37.811 53.003 37.7038 53.1557 37.6342 53.3446C37.5646 53.5335 37.5298 53.7374 37.5298 53.9561C37.5298 54.1749 37.5646 54.378 37.6342 54.5655C37.7038 54.753 37.811 54.9043 37.9559 55.0193C38.1008 55.1344 38.2855 55.1919 38.5099 55.1919ZM40.7604 55.5754V52.3027H41.2462V52.797H41.2803C41.34 52.6351 41.4479 52.5037 41.6042 52.4029C41.7604 52.302 41.9366 52.2516 42.1326 52.2516C42.1695 52.2516 42.2157 52.2523 42.2711 52.2537C42.3265 52.2551 42.3684 52.2573 42.3968 52.2601V52.7715C42.3797 52.7672 42.3407 52.7608 42.2796 52.7523C42.2199 52.7423 42.1567 52.7374 42.09 52.7374C41.9309 52.7374 41.7888 52.7708 41.6638 52.8375C41.5403 52.9029 41.4422 52.9938 41.3698 53.1102C41.2988 53.2253 41.2633 53.3567 41.2633 53.5044V55.5754H40.7604ZM43.4163 56.8027C43.3311 56.8027 43.2551 56.7956 43.1883 56.7814C43.1216 56.7686 43.0754 56.7558 43.0498 56.7431L43.1777 56.2999C43.2998 56.3311 43.4078 56.3425 43.5015 56.334C43.5953 56.3254 43.6784 56.2835 43.7508 56.2083C43.8247 56.1344 43.8922 56.0144 43.9532 55.8482L44.047 55.5925L42.8368 52.3027H43.3822L44.2856 54.9107H44.3197L45.2231 52.3027H45.7686L44.3794 56.0527C44.3169 56.2217 44.2395 56.3617 44.1471 56.4725C44.0548 56.5847 43.9476 56.6678 43.8254 56.7217C43.7047 56.7757 43.5683 56.8027 43.4163 56.8027ZM48.2988 53.3936C48.2988 52.8567 48.3684 52.3631 48.5076 51.9128C48.6482 51.4611 48.8485 51.0456 49.1084 50.6663H49.5516C49.4493 50.807 49.3535 50.9803 49.264 51.1862C49.1759 51.3908 49.0985 51.6159 49.0317 51.8617C48.965 52.106 48.9124 52.3588 48.8741 52.6202C48.8371 52.8815 48.8187 53.1394 48.8187 53.3936C48.8187 53.7317 48.8513 54.0747 48.9167 54.4227C48.982 54.7708 49.0701 55.0939 49.1809 55.3922C49.2917 55.6905 49.4153 55.9334 49.5516 56.1209H49.1084C48.8485 55.7416 48.6482 55.3269 48.5076 54.8766C48.3684 54.4249 48.2988 53.9306 48.2988 53.3936ZM51.7084 55.6351C51.3874 55.6351 51.1139 55.5477 50.8881 55.373C50.6622 55.1969 50.4896 54.9419 50.3703 54.6081C50.251 54.2729 50.1914 53.8681 50.1914 53.3936C50.1914 52.922 50.251 52.5193 50.3703 52.1855C50.4911 51.8503 50.6644 51.5946 50.8902 51.4185C51.1175 51.2409 51.3902 51.1521 51.7084 51.1521C52.0266 51.1521 52.2986 51.2409 52.5244 51.4185C52.7517 51.5946 52.925 51.8503 53.0443 52.1855C53.1651 52.5193 53.2254 52.922 53.2254 53.3936C53.2254 53.8681 53.1658 54.2729 53.0465 54.6081C52.9271 54.9419 52.7546 55.1969 52.5287 55.373C52.3029 55.5477 52.0294 55.6351 51.7084 55.6351ZM51.7084 55.1663C52.0266 55.1663 52.2737 55.0129 52.4499 54.7061C52.626 54.3993 52.7141 53.9618 52.7141 53.3936C52.7141 53.0158 52.6736 52.694 52.5926 52.4284C52.5131 52.1628 52.398 51.9604 52.2475 51.8212C52.0983 51.682 51.9186 51.6124 51.7084 51.6124C51.3931 51.6124 51.1466 51.7679 50.9691 52.079C50.7915 52.3886 50.7027 52.8269 50.7027 53.3936C50.7027 53.7715 50.7425 54.0925 50.822 54.3567C50.9016 54.6209 51.0159 54.8219 51.1651 54.9597C51.3156 55.0975 51.4967 55.1663 51.7084 55.1663ZM55.1175 53.3936C55.1175 53.9306 55.0472 54.4249 54.9066 54.8766C54.7673 55.3269 54.5678 55.7416 54.3078 56.1209H53.8646C53.9669 55.9803 54.0621 55.807 54.1502 55.601C54.2396 55.3965 54.3178 55.172 54.3845 54.9277C54.4513 54.682 54.5031 54.4284 54.5401 54.1671C54.5784 53.9043 54.5976 53.6465 54.5976 53.3936C54.5976 53.0556 54.5649 52.7125 54.4996 52.3645C54.4342 52.0165 54.3462 51.6933 54.2354 51.395C54.1246 51.0967 54.001 50.8538 53.8646 50.6663H54.3078C54.5678 51.0456 54.7673 51.4611 54.9066 51.9128C55.0472 52.3631 55.1175 52.8567 55.1175 53.3936Z" fill="#212121"/>
</g>
<defs>
<clipPath id="clip0_1_555">
<rect width="74" height="68" fill="white"/>
</clipPath>
</defs>
</svg>
