<svg width="74" height="68" viewBox="0 0 74 68" fill="none" xmlns="http://www.w3.org/2000/svg">
<g clip-path="url(#clip0_712_1055)">
<rect width="74" height="68" fill="white"/>
<rect width="74" height="68" fill="white"/>
<rect x="6" y="6" width="62" height="56" fill="#D5D9DF"/>
<path d="M24.0398 54H23.5114C23.4801 53.848 23.4254 53.7145 23.3473 53.5994C23.2706 53.4844 23.1768 53.3878 23.0661 53.3097C22.9567 53.2301 22.8352 53.1705 22.7017 53.1307C22.5682 53.0909 22.429 53.071 22.2841 53.071C22.0199 53.071 21.7805 53.1378 21.5661 53.2713C21.353 53.4048 21.1832 53.6016 21.0568 53.8615C20.9318 54.1214 20.8693 54.4403 20.8693 54.8182C20.8693 55.196 20.9318 55.5149 21.0568 55.7749C21.1832 56.0348 21.353 56.2315 21.5661 56.3651C21.7805 56.4986 22.0199 56.5653 22.2841 56.5653C22.429 56.5653 22.5682 56.5455 22.7017 56.5057C22.8352 56.4659 22.9567 56.407 23.0661 56.3288C23.1768 56.2493 23.2706 56.152 23.3473 56.0369C23.4254 55.9205 23.4801 55.7869 23.5114 55.6364H24.0398C24 55.8594 23.9276 56.0589 23.8224 56.2351C23.7173 56.4112 23.5866 56.5611 23.4304 56.6847C23.2741 56.8068 23.0987 56.8999 22.9041 56.9638C22.7109 57.0277 22.5043 57.0597 22.2841 57.0597C21.9119 57.0597 21.581 56.9688 21.2912 56.7869C21.0014 56.6051 20.7734 56.3466 20.6072 56.0114C20.4411 55.6761 20.358 55.2784 20.358 54.8182C20.358 54.358 20.4411 53.9602 20.6072 53.625C20.7734 53.2898 21.0014 53.0312 21.2912 52.8494C21.581 52.6676 21.9119 52.5767 22.2841 52.5767C22.5043 52.5767 22.7109 52.6087 22.9041 52.6726C23.0987 52.7365 23.2741 52.8303 23.4304 52.9538C23.5866 53.076 23.7173 53.2251 23.8224 53.4013C23.9276 53.576 24 53.7756 24.0398 54ZM25.7885 57.0767C25.5811 57.0767 25.3929 57.0376 25.2239 56.9595C25.0549 56.88 24.9206 56.7656 24.8212 56.6165C24.7218 56.4659 24.6721 56.2841 24.6721 56.071C24.6721 55.8835 24.709 55.7315 24.7828 55.6151C24.8567 55.4972 24.9554 55.4048 25.079 55.3381C25.2026 55.2713 25.339 55.2216 25.4881 55.1889C25.6387 55.1548 25.79 55.1278 25.9419 55.108C26.1408 55.0824 26.302 55.0632 26.4256 55.0504C26.5506 55.0362 26.6415 55.0128 26.6983 54.9801C26.7566 54.9474 26.7857 54.8906 26.7857 54.8097V54.7926C26.7857 54.5824 26.7282 54.419 26.6131 54.3026C26.4995 54.1861 26.3269 54.1278 26.0953 54.1278C25.8553 54.1278 25.6671 54.1804 25.5307 54.2855C25.3944 54.3906 25.2985 54.5028 25.2431 54.6222L24.7658 54.4517C24.851 54.2528 24.9647 54.098 25.1067 53.9872C25.2502 53.875 25.4064 53.7969 25.5755 53.7528C25.7459 53.7074 25.9135 53.6847 26.0783 53.6847C26.1834 53.6847 26.3042 53.6974 26.4405 53.723C26.5783 53.7472 26.7111 53.7976 26.839 53.8743C26.9682 53.951 27.0755 54.0668 27.1607 54.2216C27.2459 54.3764 27.2885 54.5838 27.2885 54.8438V57H26.7857V56.5568H26.7601C26.726 56.6278 26.6692 56.7038 26.5897 56.7848C26.5101 56.8658 26.4043 56.9347 26.2722 56.9915C26.1401 57.0483 25.9789 57.0767 25.7885 57.0767ZM25.8652 56.625C26.0641 56.625 26.2317 56.5859 26.3681 56.5078C26.5059 56.4297 26.6096 56.3288 26.6792 56.2053C26.7502 56.0817 26.7857 55.9517 26.7857 55.8153V55.3551C26.7644 55.3807 26.7175 55.4041 26.6451 55.4254C26.574 55.4453 26.4917 55.4631 26.3979 55.4787C26.3056 55.4929 26.2154 55.5057 26.1273 55.517C26.0407 55.527 25.9703 55.5355 25.9164 55.5426C25.7857 55.5597 25.6635 55.5874 25.5499 55.6257C25.4377 55.6626 25.3468 55.7187 25.2772 55.794C25.209 55.8679 25.1749 55.9687 25.1749 56.0966C25.1749 56.2713 25.2395 56.4034 25.3688 56.4929C25.4995 56.581 25.665 56.625 25.8652 56.625ZM29.6296 53.7273V54.1534H27.9336V53.7273H29.6296ZM28.4279 52.9432H28.9308V56.0625C28.9308 56.2045 28.9513 56.3111 28.9925 56.3821C29.0352 56.4517 29.0891 56.4986 29.1545 56.5227C29.2212 56.5455 29.2915 56.5568 29.3654 56.5568C29.4208 56.5568 29.4663 56.554 29.5018 56.5483C29.5373 56.5412 29.5657 56.5355 29.587 56.5312L29.6893 56.983C29.6552 56.9957 29.6076 57.0085 29.5465 57.0213C29.4854 57.0355 29.408 57.0426 29.3143 57.0426C29.1722 57.0426 29.033 57.0121 28.8967 56.951C28.7617 56.8899 28.6495 56.7969 28.56 56.6719C28.4719 56.5469 28.4279 56.3892 28.4279 56.1989V52.9432ZM31.723 57.0682C31.4077 57.0682 31.1357 56.9986 30.907 56.8594C30.6797 56.7188 30.5043 56.5227 30.3807 56.2713C30.2585 56.0185 30.1974 55.7244 30.1974 55.3892C30.1974 55.054 30.2585 54.7585 30.3807 54.5028C30.5043 54.2457 30.6761 54.0455 30.8963 53.902C31.1179 53.7571 31.3764 53.6847 31.6719 53.6847C31.8423 53.6847 32.0107 53.7131 32.1768 53.7699C32.343 53.8267 32.4943 53.919 32.6307 54.0469C32.767 54.1733 32.8757 54.3409 32.9567 54.5497C33.0376 54.7585 33.0781 55.0156 33.0781 55.321V55.5341H30.5554V55.0994H32.5668C32.5668 54.9148 32.5298 54.75 32.456 54.6051C32.3835 54.4602 32.2798 54.3459 32.1449 54.2621C32.0114 54.1783 31.8537 54.1364 31.6719 54.1364C31.4716 54.1364 31.2983 54.1861 31.152 54.2855C31.0071 54.3835 30.8956 54.5114 30.8175 54.669C30.7393 54.8267 30.7003 54.9957 30.7003 55.1761V55.4659C30.7003 55.7131 30.7429 55.9226 30.8281 56.0945C30.9148 56.2649 31.0348 56.3949 31.1882 56.4844C31.3416 56.5724 31.5199 56.6165 31.723 56.6165C31.8551 56.6165 31.9744 56.598 32.081 56.5611C32.1889 56.5227 32.282 56.4659 32.3601 56.3906C32.4382 56.3139 32.4986 56.2187 32.5412 56.1051L33.027 56.2415C32.9759 56.4062 32.8899 56.5511 32.7692 56.6761C32.6484 56.7997 32.4993 56.8963 32.3217 56.9659C32.1442 57.0341 31.9446 57.0682 31.723 57.0682ZM35.1641 58.2955C34.9212 58.2955 34.7124 58.2642 34.5376 58.2017C34.3629 58.1406 34.2173 58.0597 34.1009 57.9588C33.9858 57.8594 33.8942 57.7528 33.826 57.6392L34.2266 57.358C34.272 57.4176 34.3295 57.4858 34.3991 57.5625C34.4688 57.6406 34.5639 57.7081 34.6847 57.7649C34.8068 57.8232 34.9666 57.8523 35.1641 57.8523C35.4283 57.8523 35.6463 57.7884 35.8182 57.6605C35.9901 57.5327 36.076 57.3324 36.076 57.0597V56.3949H36.0334C35.9964 56.4545 35.9439 56.5284 35.8757 56.6165C35.8089 56.7031 35.7124 56.7805 35.5859 56.8487C35.4609 56.9155 35.2919 56.9489 35.0788 56.9489C34.8146 56.9489 34.5774 56.8864 34.3672 56.7614C34.1584 56.6364 33.9929 56.4545 33.8707 56.2159C33.75 55.9773 33.6896 55.6875 33.6896 55.3466C33.6896 55.0114 33.7486 54.7195 33.8665 54.4709C33.9844 54.2209 34.1484 54.0277 34.3587 53.8913C34.5689 53.7536 34.8118 53.6847 35.0874 53.6847C35.3004 53.6847 35.4695 53.7202 35.5945 53.7912C35.7209 53.8608 35.8175 53.9403 35.8842 54.0298C35.9524 54.1179 36.005 54.1903 36.0419 54.2472H36.093V53.7273H36.5788V57.0938C36.5788 57.375 36.5149 57.6037 36.3871 57.7798C36.2607 57.9574 36.0902 58.0874 35.8757 58.1697C35.6626 58.2536 35.4254 58.2955 35.1641 58.2955ZM35.147 56.4972C35.3487 56.4972 35.5192 56.451 35.6584 56.3587C35.7976 56.2663 35.9034 56.1335 35.9759 55.9602C36.0483 55.7869 36.0845 55.5795 36.0845 55.3381C36.0845 55.1023 36.049 54.8942 35.978 54.7138C35.907 54.5334 35.8018 54.392 35.6626 54.2898C35.5234 54.1875 35.3516 54.1364 35.147 54.1364C34.9339 54.1364 34.7564 54.1903 34.6143 54.2983C34.4737 54.4062 34.3679 54.5511 34.2969 54.733C34.2273 54.9148 34.1925 55.1165 34.1925 55.3381C34.1925 55.5653 34.228 55.7663 34.299 55.9411C34.3714 56.1143 34.478 56.2507 34.6186 56.3501C34.7607 56.4482 34.9368 56.4972 35.147 56.4972ZM38.8288 57.0682C38.5334 57.0682 38.2741 56.9979 38.0511 56.8572C37.8295 56.7166 37.6562 56.5199 37.5312 56.267C37.4077 56.0142 37.3459 55.7187 37.3459 55.3807C37.3459 55.0398 37.4077 54.7422 37.5312 54.4879C37.6562 54.2337 37.8295 54.0362 38.0511 53.8956C38.2741 53.755 38.5334 53.6847 38.8288 53.6847C39.1243 53.6847 39.3828 53.755 39.6044 53.8956C39.8274 54.0362 40.0007 54.2337 40.1243 54.4879C40.2493 54.7422 40.3118 55.0398 40.3118 55.3807C40.3118 55.7187 40.2493 56.0142 40.1243 56.267C40.0007 56.5199 39.8274 56.7166 39.6044 56.8572C39.3828 56.9979 39.1243 57.0682 38.8288 57.0682ZM38.8288 56.6165C39.0533 56.6165 39.2379 56.5589 39.3828 56.4439C39.5277 56.3288 39.6349 56.1776 39.7045 55.9901C39.7741 55.8026 39.8089 55.5994 39.8089 55.3807C39.8089 55.1619 39.7741 54.9581 39.7045 54.7692C39.6349 54.5803 39.5277 54.4276 39.3828 54.3111C39.2379 54.1946 39.0533 54.1364 38.8288 54.1364C38.6044 54.1364 38.4197 54.1946 38.2749 54.3111C38.13 54.4276 38.0227 54.5803 37.9531 54.7692C37.8835 54.9581 37.8487 55.1619 37.8487 55.3807C37.8487 55.5994 37.8835 55.8026 37.9531 55.9901C38.0227 56.1776 38.13 56.3288 38.2749 56.4439C38.4197 56.5589 38.6044 56.6165 38.8288 56.6165ZM41.0794 57V53.7273H41.5652V54.2216H41.5993C41.6589 54.0597 41.7669 53.9283 41.9231 53.8274C42.0794 53.7266 42.2555 53.6761 42.4515 53.6761C42.4885 53.6761 42.5346 53.6768 42.59 53.6783C42.6454 53.6797 42.6873 53.6818 42.7157 53.6847V54.196C42.6987 54.1918 42.6596 54.1854 42.5985 54.1768C42.5389 54.1669 42.4757 54.1619 42.4089 54.1619C42.2498 54.1619 42.1078 54.1953 41.9828 54.2621C41.8592 54.3274 41.7612 54.4183 41.6887 54.5348C41.6177 54.6499 41.5822 54.7812 41.5822 54.929V57H41.0794ZM43.7353 58.2273C43.65 58.2273 43.574 58.2202 43.5073 58.206C43.4405 58.1932 43.3944 58.1804 43.3688 58.1676L43.4966 57.7244C43.6188 57.7557 43.7267 57.767 43.8205 57.7585C43.9142 57.75 43.9973 57.7081 44.0698 57.6328C44.1436 57.5589 44.2111 57.4389 44.2722 57.2727L44.3659 57.017L43.1557 53.7273H43.7012L44.6046 56.3352H44.6387L45.5421 53.7273H46.0875L44.6983 57.4773C44.6358 57.6463 44.5584 57.7862 44.4661 57.897C44.3738 58.0092 44.2665 58.0923 44.1444 58.1463C44.0236 58.2003 43.8873 58.2273 43.7353 58.2273ZM48.6177 54.8182C48.6177 54.2812 48.6873 53.7876 48.8265 53.3374C48.9672 52.8857 49.1674 52.4702 49.4274 52.0909H49.8706C49.7683 52.2315 49.6724 52.4048 49.5829 52.6108C49.4949 52.8153 49.4174 53.0405 49.3507 53.2862C49.2839 53.5305 49.2314 53.7834 49.193 54.0447C49.1561 54.3061 49.1376 54.5639 49.1376 54.8182C49.1376 55.1562 49.1703 55.4993 49.2356 55.8473C49.301 56.1953 49.389 56.5185 49.4998 56.8168C49.6106 57.1151 49.7342 57.358 49.8706 57.5455H49.4274C49.1674 57.1662 48.9672 56.7514 48.8265 56.3011C48.6873 55.8494 48.6177 55.3551 48.6177 54.8182ZM52.0273 57.0597C51.7063 57.0597 51.4329 56.9723 51.207 56.7976C50.9812 56.6214 50.8086 56.3665 50.6893 56.0327C50.57 55.6974 50.5103 55.2926 50.5103 54.8182C50.5103 54.3466 50.57 53.9439 50.6893 53.6101C50.81 53.2749 50.9833 53.0192 51.2092 52.843C51.4364 52.6655 51.7092 52.5767 52.0273 52.5767C52.3455 52.5767 52.6175 52.6655 52.8434 52.843C53.0707 53.0192 53.244 53.2749 53.3633 53.6101C53.484 53.9439 53.5444 54.3466 53.5444 54.8182C53.5444 55.2926 53.4847 55.6974 53.3654 56.0327C53.2461 56.3665 53.0735 56.6214 52.8477 56.7976C52.6218 56.9723 52.3484 57.0597 52.0273 57.0597ZM52.0273 56.5909C52.3455 56.5909 52.5927 56.4375 52.7688 56.1307C52.945 55.8239 53.033 55.3864 53.033 54.8182C53.033 54.4403 52.9925 54.1186 52.9116 53.853C52.832 53.5874 52.717 53.3849 52.5664 53.2457C52.4173 53.1065 52.2376 53.0369 52.0273 53.0369C51.712 53.0369 51.4656 53.1925 51.288 53.5036C51.1104 53.8132 51.0217 54.2514 51.0217 54.8182C51.0217 55.196 51.0614 55.517 51.141 55.7812C51.2205 56.0455 51.3349 56.2464 51.484 56.3842C51.6346 56.522 51.8157 56.5909 52.0273 56.5909ZM55.4364 54.8182C55.4364 55.3551 55.3661 55.8494 55.2255 56.3011C55.0863 56.7514 54.8867 57.1662 54.6268 57.5455H54.1836C54.2859 57.4048 54.381 57.2315 54.4691 57.0256C54.5586 56.821 54.6367 56.5966 54.7035 56.3523C54.7702 56.1065 54.8221 55.853 54.859 55.5916C54.8974 55.3288 54.9165 55.071 54.9165 54.8182C54.9165 54.4801 54.8839 54.1371 54.8185 53.7891C54.7532 53.4411 54.6651 53.1179 54.5543 52.8196C54.4435 52.5213 54.32 52.2784 54.1836 52.0909H54.6268C54.8867 52.4702 55.0863 52.8857 55.2255 53.3374C55.3661 53.7876 55.4364 54.2812 55.4364 54.8182Z" fill="white"/>
</g>
<defs>
<clipPath id="clip0_712_1055">
<rect width="74" height="68" fill="white"/>
</clipPath>
</defs>
</svg>
