<svg width="74" height="68" viewBox="0 0 74 68" fill="none" xmlns="http://www.w3.org/2000/svg">
<g clip-path="url(#clip0_712_932)">
<rect width="74" height="68" fill="white"/>
<rect width="74" height="68" fill="white"/>
<rect x="6" y="6" width="62" height="40.9231" fill="#D5D9DF"/>
<path d="M6 46.9238H68V62.0008H6V46.9238Z" fill="#F8F8F8"/>
<path d="M15.78 53.1543H15.2516C15.2203 53.0023 15.1657 52.8688 15.0875 52.7537C15.0108 52.6387 14.9171 52.5421 14.8063 52.464C14.6969 52.3844 14.5755 52.3248 14.4419 52.285C14.3084 52.2452 14.1692 52.2253 14.0243 52.2253C13.7601 52.2253 13.5208 52.2921 13.3063 52.4256C13.0932 52.5591 12.9235 52.7559 12.7971 53.0158C12.6721 53.2757 12.6096 53.5946 12.6096 53.9725C12.6096 54.3503 12.6721 54.6692 12.7971 54.9292C12.9235 55.1891 13.0932 55.3858 13.3063 55.5194C13.5208 55.6529 13.7601 55.7196 14.0243 55.7196C14.1692 55.7196 14.3084 55.6998 14.4419 55.66C14.5755 55.6202 14.6969 55.5613 14.8063 55.4831C14.9171 55.4036 15.0108 55.3063 15.0875 55.1912C15.1657 55.0748 15.2203 54.9412 15.2516 54.7907H15.78C15.7402 55.0137 15.6678 55.2132 15.5627 55.3894C15.4576 55.5655 15.3269 55.7154 15.1706 55.839C15.0144 55.9611 14.839 56.0542 14.6444 56.1181C14.4512 56.182 14.2445 56.214 14.0243 56.214C13.6522 56.214 13.3212 56.123 13.0314 55.9412C12.7417 55.7594 12.5137 55.5009 12.3475 55.1657C12.1813 54.8304 12.0982 54.4327 12.0982 53.9725C12.0982 53.5123 12.1813 53.1145 12.3475 52.7793C12.5137 52.4441 12.7417 52.1855 13.0314 52.0037C13.3212 51.8219 13.6522 51.731 14.0243 51.731C14.2445 51.731 14.4512 51.763 14.6444 51.8269C14.839 51.8908 15.0144 51.9846 15.1706 52.1081C15.3269 52.2303 15.4576 52.3794 15.5627 52.5556C15.6678 52.7303 15.7402 52.9299 15.78 53.1543ZM17.5288 56.231C17.3214 56.231 17.1332 56.1919 16.9641 56.1138C16.7951 56.0343 16.6609 55.9199 16.5614 55.7708C16.462 55.6202 16.4123 55.4384 16.4123 55.2253C16.4123 55.0378 16.4492 54.8858 16.5231 54.7694C16.5969 54.6515 16.6957 54.5591 16.8192 54.4924C16.9428 54.4256 17.0792 54.3759 17.2283 54.3432C17.3789 54.3091 17.5302 54.2821 17.6822 54.2623C17.881 54.2367 18.0423 54.2175 18.1658 54.2047C18.2908 54.1905 18.3817 54.1671 18.4386 54.1344C18.4968 54.1017 18.5259 54.0449 18.5259 53.964V53.9469C18.5259 53.7367 18.4684 53.5733 18.3533 53.4569C18.2397 53.3404 18.0671 53.2821 17.8356 53.2821C17.5955 53.2821 17.4073 53.3347 17.271 53.4398C17.1346 53.5449 17.0387 53.6571 16.9833 53.7765L16.506 53.606C16.5913 53.4071 16.7049 53.2523 16.8469 53.1415C16.9904 53.0293 17.1467 52.9512 17.3157 52.9071C17.4862 52.8617 17.6538 52.839 17.8185 52.839C17.9237 52.839 18.0444 52.8517 18.1808 52.8773C18.3185 52.9015 18.4513 52.9519 18.5792 53.0286C18.7085 53.1053 18.8157 53.2211 18.9009 53.3759C18.9862 53.5307 19.0288 53.7381 19.0288 53.998V56.1543H18.5259V55.7111H18.5004C18.4663 55.7821 18.4094 55.8581 18.3299 55.9391C18.2504 56.0201 18.1445 56.089 18.0124 56.1458C17.8803 56.2026 17.7191 56.231 17.5288 56.231ZM17.6055 55.7793C17.8043 55.7793 17.9719 55.7402 18.1083 55.6621C18.2461 55.584 18.3498 55.4831 18.4194 55.3596C18.4904 55.236 18.5259 55.106 18.5259 54.9696V54.5094C18.5046 54.535 18.4577 54.5584 18.3853 54.5797C18.3143 54.5996 18.2319 54.6174 18.1381 54.633C18.0458 54.6472 17.9556 54.66 17.8675 54.6713C17.7809 54.6813 17.7106 54.6898 17.6566 54.6969C17.5259 54.714 17.4038 54.7417 17.2901 54.78C17.1779 54.8169 17.087 54.873 17.0174 54.9483C16.9492 55.0222 16.9151 55.123 16.9151 55.2509C16.9151 55.4256 16.9798 55.5577 17.109 55.6472C17.2397 55.7353 17.4052 55.7793 17.6055 55.7793ZM21.3699 52.8816V53.3077H19.6738V52.8816H21.3699ZM20.1681 52.0975H20.671V55.2168C20.671 55.3588 20.6916 55.4654 20.7328 55.5364C20.7754 55.606 20.8294 55.6529 20.8947 55.677C20.9615 55.6998 21.0318 55.7111 21.1056 55.7111C21.161 55.7111 21.2065 55.7083 21.242 55.7026C21.2775 55.6955 21.3059 55.6898 21.3272 55.6855L21.4295 56.1373C21.3954 56.15 21.3478 56.1628 21.2868 56.1756C21.2257 56.1898 21.1483 56.1969 21.0545 56.1969C20.9125 56.1969 20.7733 56.1664 20.6369 56.1053C20.502 56.0442 20.3897 55.9512 20.3002 55.8262C20.2122 55.7012 20.1681 55.5435 20.1681 55.3532V52.0975ZM23.4632 56.2225C23.1479 56.2225 22.8759 56.1529 22.6472 56.0137C22.4199 55.873 22.2445 55.677 22.1209 55.4256C21.9988 55.1728 21.9377 54.8787 21.9377 54.5435C21.9377 54.2083 21.9988 53.9128 22.1209 53.6571C22.2445 53.4 22.4164 53.1998 22.6365 53.0563C22.8581 52.9114 23.1167 52.839 23.4121 52.839C23.5826 52.839 23.7509 52.8674 23.9171 52.9242C24.0833 52.981 24.2346 53.0733 24.3709 53.2012C24.5073 53.3276 24.6159 53.4952 24.6969 53.704C24.7779 53.9128 24.8184 54.1699 24.8184 54.4753V54.6884H22.2956V54.2537H24.307C24.307 54.0691 24.2701 53.9043 24.1962 53.7594C24.1238 53.6145 24.0201 53.5002 23.8851 53.4164C23.7516 53.3326 23.5939 53.2907 23.4121 53.2907C23.2118 53.2907 23.0385 53.3404 22.8922 53.4398C22.7473 53.5378 22.6358 53.6657 22.5577 53.8233C22.4796 53.981 22.4405 54.15 22.4405 54.3304V54.6202C22.4405 54.8674 22.4831 55.0769 22.5684 55.2488C22.655 55.4192 22.775 55.5492 22.9284 55.6387C23.0819 55.7267 23.2601 55.7708 23.4632 55.7708C23.5953 55.7708 23.7147 55.7523 23.8212 55.7154C23.9292 55.677 24.0222 55.6202 24.1003 55.5449C24.1784 55.4682 24.2388 55.373 24.2814 55.2594L24.7672 55.3958C24.7161 55.5605 24.6301 55.7054 24.5094 55.8304C24.3887 55.954 24.2395 56.0506 24.062 56.1202C23.8844 56.1884 23.6848 56.2225 23.4632 56.2225ZM26.9043 57.4498C26.6614 57.4498 26.4526 57.4185 26.2779 57.356C26.1032 57.2949 25.9576 57.214 25.8411 57.1131C25.726 57.0137 25.6344 56.9071 25.5662 56.7935L25.9668 56.5123C26.0123 56.5719 26.0698 56.6401 26.1394 56.7168C26.209 56.7949 26.3042 56.8624 26.4249 56.9192C26.5471 56.9775 26.7069 57.0066 26.9043 57.0066C27.1685 57.0066 27.3865 56.9426 27.5584 56.8148C27.7303 56.687 27.8162 56.4867 27.8162 56.214V55.5492H27.7736C27.7367 55.6088 27.6841 55.6827 27.6159 55.7708C27.5492 55.8574 27.4526 55.9348 27.3262 56.003C27.2012 56.0698 27.0321 56.1032 26.8191 56.1032C26.5549 56.1032 26.3176 56.0407 26.1074 55.9157C25.8986 55.7907 25.7331 55.6088 25.611 55.3702C25.4902 55.1316 25.4299 54.8418 25.4299 54.5009C25.4299 54.1657 25.4888 53.8738 25.6067 53.6252C25.7246 53.3752 25.8887 53.182 26.0989 53.0456C26.3091 52.9078 26.552 52.839 26.8276 52.839C27.0407 52.839 27.2097 52.8745 27.3347 52.9455C27.4611 53.0151 27.5577 53.0946 27.6245 53.1841C27.6926 53.2722 27.7452 53.3446 27.7821 53.4015H27.8333V52.8816H28.3191V56.248C28.3191 56.5293 28.2551 56.758 28.1273 56.9341C28.0009 57.1117 27.8304 57.2417 27.6159 57.324C27.4029 57.4078 27.1657 57.4498 26.9043 57.4498ZM26.8873 55.6515C27.089 55.6515 27.2594 55.6053 27.3986 55.513C27.5378 55.4206 27.6436 55.2878 27.7161 55.1145C27.7885 54.9412 27.8248 54.7338 27.8248 54.4924C27.8248 54.2566 27.7892 54.0485 27.7182 53.8681C27.6472 53.6877 27.5421 53.5463 27.4029 53.4441C27.2637 53.3418 27.0918 53.2907 26.8873 53.2907C26.6742 53.2907 26.4966 53.3446 26.3546 53.4526C26.214 53.5605 26.1081 53.7054 26.0371 53.8873C25.9675 54.0691 25.9327 54.2708 25.9327 54.4924C25.9327 54.7196 25.9682 54.9206 26.0392 55.0953C26.1117 55.2686 26.2182 55.405 26.3588 55.5044C26.5009 55.6025 26.677 55.6515 26.8873 55.6515ZM30.5691 56.2225C30.2736 56.2225 30.0144 56.1522 29.7914 56.0115C29.5698 55.8709 29.3965 55.6742 29.2715 55.4213C29.1479 55.1685 29.0861 54.873 29.0861 54.535C29.0861 54.1941 29.1479 53.8965 29.2715 53.6422C29.3965 53.388 29.5698 53.1905 29.7914 53.0499C30.0144 52.9093 30.2736 52.839 30.5691 52.839C30.8645 52.839 31.123 52.9093 31.3446 53.0499C31.5676 53.1905 31.7409 53.388 31.8645 53.6422C31.9895 53.8965 32.052 54.1941 32.052 54.535C32.052 54.873 31.9895 55.1685 31.8645 55.4213C31.7409 55.6742 31.5676 55.8709 31.3446 56.0115C31.123 56.1522 30.8645 56.2225 30.5691 56.2225ZM30.5691 55.7708C30.7935 55.7708 30.9782 55.7132 31.123 55.5982C31.2679 55.4831 31.3752 55.3319 31.4448 55.1444C31.5144 54.9569 31.5492 54.7537 31.5492 54.535C31.5492 54.3162 31.5144 54.1124 31.4448 53.9235C31.3752 53.7346 31.2679 53.5819 31.123 53.4654C30.9782 53.3489 30.7935 53.2907 30.5691 53.2907C30.3446 53.2907 30.16 53.3489 30.0151 53.4654C29.8702 53.5819 29.763 53.7346 29.6934 53.9235C29.6238 54.1124 29.589 54.3162 29.589 54.535C29.589 54.7537 29.6238 54.9569 29.6934 55.1444C29.763 55.3319 29.8702 55.4831 30.0151 55.5982C30.16 55.7132 30.3446 55.7708 30.5691 55.7708ZM32.8196 56.1543V52.8816H33.3054V53.3759H33.3395C33.3991 53.214 33.5071 53.0826 33.6634 52.9817C33.8196 52.8809 33.9957 52.8304 34.1918 52.8304C34.2287 52.8304 34.2749 52.8311 34.3303 52.8326C34.3857 52.834 34.4276 52.8361 34.456 52.839V53.3503C34.4389 53.3461 34.3999 53.3397 34.3388 53.3311C34.2791 53.3212 34.2159 53.3162 34.1491 53.3162C33.9901 53.3162 33.848 53.3496 33.723 53.4164C33.5994 53.4817 33.5014 53.5726 33.429 53.6891C33.358 53.8042 33.3224 53.9355 33.3224 54.0833V56.1543H32.8196ZM35.4755 57.3816C35.3903 57.3816 35.3143 57.3745 35.2475 57.3603C35.1808 57.3475 35.1346 57.3347 35.109 57.3219L35.2369 56.8787C35.359 56.91 35.467 56.9213 35.5607 56.9128C35.6545 56.9043 35.7376 56.8624 35.81 56.7871C35.8839 56.7132 35.9513 56.5932 36.0124 56.427L36.1062 56.1713L34.896 52.8816H35.4414L36.3448 55.4895H36.3789L37.2823 52.8816H37.8278L36.4386 56.6316C36.3761 56.8006 36.2987 56.9405 36.2063 57.0513C36.114 57.1635 36.0067 57.2466 35.8846 57.3006C35.7638 57.3546 35.6275 57.3816 35.4755 57.3816ZM40.358 53.9725C40.358 53.4355 40.4276 52.9419 40.5668 52.4917C40.7074 52.04 40.9077 51.6245 41.1676 51.2452H41.6108C41.5085 51.3858 41.4126 51.5591 41.3232 51.7651C41.2351 51.9696 41.1577 52.1948 41.0909 52.4405C41.0241 52.6848 40.9716 52.9377 40.9332 53.199C40.8963 53.4604 40.8778 53.7182 40.8778 53.9725C40.8778 54.3105 40.9105 54.6536 40.9759 55.0016C41.0412 55.3496 41.1293 55.6728 41.2401 55.9711C41.3509 56.2694 41.4744 56.5123 41.6108 56.6998H41.1676C40.9077 56.3205 40.7074 55.9057 40.5668 55.4554C40.4276 55.0037 40.358 54.5094 40.358 53.9725ZM43.7676 56.214C43.4466 56.214 43.1731 56.1266 42.9473 55.9519C42.7214 55.7757 42.5488 55.5208 42.4295 55.187C42.3102 54.8517 42.2505 54.4469 42.2505 53.9725C42.2505 53.5009 42.3102 53.0982 42.4295 52.7644C42.5502 52.4292 42.7235 52.1735 42.9494 51.9973C43.1767 51.8198 43.4494 51.731 43.7676 51.731C44.0858 51.731 44.3578 51.8198 44.5836 51.9973C44.8109 52.1735 44.9842 52.4292 45.1035 52.7644C45.2243 53.0982 45.2846 53.5009 45.2846 53.9725C45.2846 54.4469 45.225 54.8517 45.1056 55.187C44.9863 55.5208 44.8137 55.7757 44.5879 55.9519C44.362 56.1266 44.0886 56.214 43.7676 56.214ZM43.7676 55.7452C44.0858 55.7452 44.3329 55.5918 44.5091 55.285C44.6852 54.9782 44.7733 54.5407 44.7733 53.9725C44.7733 53.5946 44.7328 53.2729 44.6518 53.0073C44.5723 52.7417 44.4572 52.5392 44.3066 52.4C44.1575 52.2608 43.9778 52.1912 43.7676 52.1912C43.4522 52.1912 43.2058 52.3468 43.0282 52.6578C42.8507 52.9675 42.7619 53.4057 42.7619 53.9725C42.7619 54.3503 42.8017 54.6713 42.8812 54.9355C42.9608 55.1998 43.0751 55.4007 43.2243 55.5385C43.3748 55.6763 43.5559 55.7452 43.7676 55.7452ZM47.1767 53.9725C47.1767 54.5094 47.1064 55.0037 46.9657 55.4554C46.8265 55.9057 46.627 56.3205 46.367 56.6998H45.9238C46.0261 56.5591 46.1213 56.3858 46.2093 56.1799C46.2988 55.9753 46.377 55.7509 46.4437 55.5066C46.5105 55.2608 46.5623 55.0073 46.5993 54.7459C46.6376 54.4831 46.6568 54.2253 46.6568 53.9725C46.6568 53.6344 46.6241 53.2914 46.5588 52.9434C46.4934 52.5953 46.4054 52.2722 46.2946 51.9739C46.1838 51.6756 46.0602 51.4327 45.9238 51.2452H46.367C46.627 51.6245 46.8265 52.04 46.9657 52.4917C47.1064 52.9419 47.1767 53.4355 47.1767 53.9725Z" fill="#5B5B5B"/>
</g>
<defs>
<clipPath id="clip0_712_932">
<rect width="74" height="68" fill="white"/>
</clipPath>
</defs>
</svg>
