<svg width="74" height="68" viewBox="0 0 74 68" fill="none" xmlns="http://www.w3.org/2000/svg">
<g clip-path="url(#clip0_709_661)">
<rect width="74" height="68" fill="white"/>
<rect width="74" height="68" fill="white"/>
<rect x="6" y="6" width="62" height="56" fill="#D5D9DF"/>
<path d="M23.0398 33H22.5114C22.4801 32.848 22.4254 32.7145 22.3473 32.5994C22.2706 32.4844 22.1768 32.3878 22.0661 32.3097C21.9567 32.2301 21.8352 32.1705 21.7017 32.1307C21.5682 32.0909 21.429 32.071 21.2841 32.071C21.0199 32.071 20.7805 32.1378 20.5661 32.2713C20.353 32.4048 20.1832 32.6016 20.0568 32.8615C19.9318 33.1214 19.8693 33.4403 19.8693 33.8182C19.8693 34.196 19.9318 34.5149 20.0568 34.7749C20.1832 35.0348 20.353 35.2315 20.5661 35.3651C20.7805 35.4986 21.0199 35.5653 21.2841 35.5653C21.429 35.5653 21.5682 35.5455 21.7017 35.5057C21.8352 35.4659 21.9567 35.407 22.0661 35.3288C22.1768 35.2493 22.2706 35.152 22.3473 35.0369C22.4254 34.9205 22.4801 34.7869 22.5114 34.6364H23.0398C23 34.8594 22.9276 35.0589 22.8224 35.2351C22.7173 35.4112 22.5866 35.5611 22.4304 35.6847C22.2741 35.8068 22.0987 35.8999 21.9041 35.9638C21.7109 36.0277 21.5043 36.0597 21.2841 36.0597C20.9119 36.0597 20.581 35.9688 20.2912 35.7869C20.0014 35.6051 19.7734 35.3466 19.6072 35.0114C19.4411 34.6761 19.358 34.2784 19.358 33.8182C19.358 33.358 19.4411 32.9602 19.6072 32.625C19.7734 32.2898 20.0014 32.0312 20.2912 31.8494C20.581 31.6676 20.9119 31.5767 21.2841 31.5767C21.5043 31.5767 21.7109 31.6087 21.9041 31.6726C22.0987 31.7365 22.2741 31.8303 22.4304 31.9538C22.5866 32.076 22.7173 32.2251 22.8224 32.4013C22.9276 32.576 23 32.7756 23.0398 33ZM24.7885 36.0767C24.5811 36.0767 24.3929 36.0376 24.2239 35.9595C24.0549 35.88 23.9206 35.7656 23.8212 35.6165C23.7218 35.4659 23.6721 35.2841 23.6721 35.071C23.6721 34.8835 23.709 34.7315 23.7828 34.6151C23.8567 34.4972 23.9554 34.4048 24.079 34.3381C24.2026 34.2713 24.339 34.2216 24.4881 34.1889C24.6387 34.1548 24.79 34.1278 24.9419 34.108C25.1408 34.0824 25.302 34.0632 25.4256 34.0504C25.5506 34.0362 25.6415 34.0128 25.6983 33.9801C25.7566 33.9474 25.7857 33.8906 25.7857 33.8097V33.7926C25.7857 33.5824 25.7282 33.419 25.6131 33.3026C25.4995 33.1861 25.3269 33.1278 25.0953 33.1278C24.8553 33.1278 24.6671 33.1804 24.5307 33.2855C24.3944 33.3906 24.2985 33.5028 24.2431 33.6222L23.7658 33.4517C23.851 33.2528 23.9647 33.098 24.1067 32.9872C24.2502 32.875 24.4064 32.7969 24.5755 32.7528C24.7459 32.7074 24.9135 32.6847 25.0783 32.6847C25.1834 32.6847 25.3042 32.6974 25.4405 32.723C25.5783 32.7472 25.7111 32.7976 25.839 32.8743C25.9682 32.951 26.0755 33.0668 26.1607 33.2216C26.2459 33.3764 26.2885 33.5838 26.2885 33.8438V36H25.7857V35.5568H25.7601C25.726 35.6278 25.6692 35.7038 25.5897 35.7848C25.5101 35.8658 25.4043 35.9347 25.2722 35.9915C25.1401 36.0483 24.9789 36.0767 24.7885 36.0767ZM24.8652 35.625C25.0641 35.625 25.2317 35.5859 25.3681 35.5078C25.5059 35.4297 25.6096 35.3288 25.6792 35.2053C25.7502 35.0817 25.7857 34.9517 25.7857 34.8153V34.3551C25.7644 34.3807 25.7175 34.4041 25.6451 34.4254C25.574 34.4453 25.4917 34.4631 25.3979 34.4787C25.3056 34.4929 25.2154 34.5057 25.1273 34.517C25.0407 34.527 24.9703 34.5355 24.9164 34.5426C24.7857 34.5597 24.6635 34.5874 24.5499 34.6257C24.4377 34.6626 24.3468 34.7187 24.2772 34.794C24.209 34.8679 24.1749 34.9687 24.1749 35.0966C24.1749 35.2713 24.2395 35.4034 24.3688 35.4929C24.4995 35.581 24.665 35.625 24.8652 35.625ZM28.6296 32.7273V33.1534H26.9336V32.7273H28.6296ZM27.4279 31.9432H27.9308V35.0625C27.9308 35.2045 27.9513 35.3111 27.9925 35.3821C28.0352 35.4517 28.0891 35.4986 28.1545 35.5227C28.2212 35.5455 28.2915 35.5568 28.3654 35.5568C28.4208 35.5568 28.4663 35.554 28.5018 35.5483C28.5373 35.5412 28.5657 35.5355 28.587 35.5312L28.6893 35.983C28.6552 35.9957 28.6076 36.0085 28.5465 36.0213C28.4854 36.0355 28.408 36.0426 28.3143 36.0426C28.1722 36.0426 28.033 36.0121 27.8967 35.951C27.7617 35.8899 27.6495 35.7969 27.56 35.6719C27.4719 35.5469 27.4279 35.3892 27.4279 35.1989V31.9432ZM30.723 36.0682C30.4077 36.0682 30.1357 35.9986 29.907 35.8594C29.6797 35.7188 29.5043 35.5227 29.3807 35.2713C29.2585 35.0185 29.1974 34.7244 29.1974 34.3892C29.1974 34.054 29.2585 33.7585 29.3807 33.5028C29.5043 33.2457 29.6761 33.0455 29.8963 32.902C30.1179 32.7571 30.3764 32.6847 30.6719 32.6847C30.8423 32.6847 31.0107 32.7131 31.1768 32.7699C31.343 32.8267 31.4943 32.919 31.6307 33.0469C31.767 33.1733 31.8757 33.3409 31.9567 33.5497C32.0376 33.7585 32.0781 34.0156 32.0781 34.321V34.5341H29.5554V34.0994H31.5668C31.5668 33.9148 31.5298 33.75 31.456 33.6051C31.3835 33.4602 31.2798 33.3459 31.1449 33.2621C31.0114 33.1783 30.8537 33.1364 30.6719 33.1364C30.4716 33.1364 30.2983 33.1861 30.152 33.2855C30.0071 33.3835 29.8956 33.5114 29.8175 33.669C29.7393 33.8267 29.7003 33.9957 29.7003 34.1761V34.4659C29.7003 34.7131 29.7429 34.9226 29.8281 35.0945C29.9148 35.2649 30.0348 35.3949 30.1882 35.4844C30.3416 35.5724 30.5199 35.6165 30.723 35.6165C30.8551 35.6165 30.9744 35.598 31.081 35.5611C31.1889 35.5227 31.282 35.4659 31.3601 35.3906C31.4382 35.3139 31.4986 35.2187 31.5412 35.1051L32.027 35.2415C31.9759 35.4062 31.8899 35.5511 31.7692 35.6761C31.6484 35.7997 31.4993 35.8963 31.3217 35.9659C31.1442 36.0341 30.9446 36.0682 30.723 36.0682ZM34.1641 37.2955C33.9212 37.2955 33.7124 37.2642 33.5376 37.2017C33.3629 37.1406 33.2173 37.0597 33.1009 36.9588C32.9858 36.8594 32.8942 36.7528 32.826 36.6392L33.2266 36.358C33.272 36.4176 33.3295 36.4858 33.3991 36.5625C33.4688 36.6406 33.5639 36.7081 33.6847 36.7649C33.8068 36.8232 33.9666 36.8523 34.1641 36.8523C34.4283 36.8523 34.6463 36.7884 34.8182 36.6605C34.9901 36.5327 35.076 36.3324 35.076 36.0597V35.3949H35.0334C34.9964 35.4545 34.9439 35.5284 34.8757 35.6165C34.8089 35.7031 34.7124 35.7805 34.5859 35.8487C34.4609 35.9155 34.2919 35.9489 34.0788 35.9489C33.8146 35.9489 33.5774 35.8864 33.3672 35.7614C33.1584 35.6364 32.9929 35.4545 32.8707 35.2159C32.75 34.9773 32.6896 34.6875 32.6896 34.3466C32.6896 34.0114 32.7486 33.7195 32.8665 33.4709C32.9844 33.2209 33.1484 33.0277 33.3587 32.8913C33.5689 32.7536 33.8118 32.6847 34.0874 32.6847C34.3004 32.6847 34.4695 32.7202 34.5945 32.7912C34.7209 32.8608 34.8175 32.9403 34.8842 33.0298C34.9524 33.1179 35.005 33.1903 35.0419 33.2472H35.093V32.7273H35.5788V36.0938C35.5788 36.375 35.5149 36.6037 35.3871 36.7798C35.2607 36.9574 35.0902 37.0874 34.8757 37.1697C34.6626 37.2536 34.4254 37.2955 34.1641 37.2955ZM34.147 35.4972C34.3487 35.4972 34.5192 35.451 34.6584 35.3587C34.7976 35.2663 34.9034 35.1335 34.9759 34.9602C35.0483 34.7869 35.0845 34.5795 35.0845 34.3381C35.0845 34.1023 35.049 33.8942 34.978 33.7138C34.907 33.5334 34.8018 33.392 34.6626 33.2898C34.5234 33.1875 34.3516 33.1364 34.147 33.1364C33.9339 33.1364 33.7564 33.1903 33.6143 33.2983C33.4737 33.4062 33.3679 33.5511 33.2969 33.733C33.2273 33.9148 33.1925 34.1165 33.1925 34.3381C33.1925 34.5653 33.228 34.7663 33.299 34.9411C33.3714 35.1143 33.478 35.2507 33.6186 35.3501C33.7607 35.4482 33.9368 35.4972 34.147 35.4972ZM37.8288 36.0682C37.5334 36.0682 37.2741 35.9979 37.0511 35.8572C36.8295 35.7166 36.6562 35.5199 36.5312 35.267C36.4077 35.0142 36.3459 34.7187 36.3459 34.3807C36.3459 34.0398 36.4077 33.7422 36.5312 33.4879C36.6562 33.2337 36.8295 33.0362 37.0511 32.8956C37.2741 32.755 37.5334 32.6847 37.8288 32.6847C38.1243 32.6847 38.3828 32.755 38.6044 32.8956C38.8274 33.0362 39.0007 33.2337 39.1243 33.4879C39.2493 33.7422 39.3118 34.0398 39.3118 34.3807C39.3118 34.7187 39.2493 35.0142 39.1243 35.267C39.0007 35.5199 38.8274 35.7166 38.6044 35.8572C38.3828 35.9979 38.1243 36.0682 37.8288 36.0682ZM37.8288 35.6165C38.0533 35.6165 38.2379 35.5589 38.3828 35.4439C38.5277 35.3288 38.6349 35.1776 38.7045 34.9901C38.7741 34.8026 38.8089 34.5994 38.8089 34.3807C38.8089 34.1619 38.7741 33.9581 38.7045 33.7692C38.6349 33.5803 38.5277 33.4276 38.3828 33.3111C38.2379 33.1946 38.0533 33.1364 37.8288 33.1364C37.6044 33.1364 37.4197 33.1946 37.2749 33.3111C37.13 33.4276 37.0227 33.5803 36.9531 33.7692C36.8835 33.9581 36.8487 34.1619 36.8487 34.3807C36.8487 34.5994 36.8835 34.8026 36.9531 34.9901C37.0227 35.1776 37.13 35.3288 37.2749 35.4439C37.4197 35.5589 37.6044 35.6165 37.8288 35.6165ZM40.0794 36V32.7273H40.5652V33.2216H40.5993C40.6589 33.0597 40.7669 32.9283 40.9231 32.8274C41.0794 32.7266 41.2555 32.6761 41.4515 32.6761C41.4885 32.6761 41.5346 32.6768 41.59 32.6783C41.6454 32.6797 41.6873 32.6818 41.7157 32.6847V33.196C41.6987 33.1918 41.6596 33.1854 41.5985 33.1768C41.5389 33.1669 41.4757 33.1619 41.4089 33.1619C41.2498 33.1619 41.1078 33.1953 40.9828 33.2621C40.8592 33.3274 40.7612 33.4183 40.6887 33.5348C40.6177 33.6499 40.5822 33.7812 40.5822 33.929V36H40.0794ZM42.7353 37.2273C42.65 37.2273 42.574 37.2202 42.5073 37.206C42.4405 37.1932 42.3944 37.1804 42.3688 37.1676L42.4966 36.7244C42.6188 36.7557 42.7267 36.767 42.8205 36.7585C42.9142 36.75 42.9973 36.7081 43.0698 36.6328C43.1436 36.5589 43.2111 36.4389 43.2722 36.2727L43.3659 36.017L42.1557 32.7273H42.7012L43.6046 35.3352H43.6387L44.5421 32.7273H45.0875L43.6983 36.4773C43.6358 36.6463 43.5584 36.7862 43.4661 36.897C43.3738 37.0092 43.2665 37.0923 43.1444 37.1463C43.0236 37.2003 42.8873 37.2273 42.7353 37.2273ZM47.6177 33.8182C47.6177 33.2812 47.6873 32.7876 47.8265 32.3374C47.9672 31.8857 48.1674 31.4702 48.4274 31.0909H48.8706C48.7683 31.2315 48.6724 31.4048 48.5829 31.6108C48.4949 31.8153 48.4174 32.0405 48.3507 32.2862C48.2839 32.5305 48.2314 32.7834 48.193 33.0447C48.1561 33.3061 48.1376 33.5639 48.1376 33.8182C48.1376 34.1562 48.1703 34.4993 48.2356 34.8473C48.301 35.1953 48.389 35.5185 48.4998 35.8168C48.6106 36.1151 48.7342 36.358 48.8706 36.5455H48.4274C48.1674 36.1662 47.9672 35.7514 47.8265 35.3011C47.6873 34.8494 47.6177 34.3551 47.6177 33.8182ZM51.0273 36.0597C50.7063 36.0597 50.4329 35.9723 50.207 35.7976C49.9812 35.6214 49.8086 35.3665 49.6893 35.0327C49.57 34.6974 49.5103 34.2926 49.5103 33.8182C49.5103 33.3466 49.57 32.9439 49.6893 32.6101C49.81 32.2749 49.9833 32.0192 50.2092 31.843C50.4364 31.6655 50.7092 31.5767 51.0273 31.5767C51.3455 31.5767 51.6175 31.6655 51.8434 31.843C52.0707 32.0192 52.244 32.2749 52.3633 32.6101C52.484 32.9439 52.5444 33.3466 52.5444 33.8182C52.5444 34.2926 52.4847 34.6974 52.3654 35.0327C52.2461 35.3665 52.0735 35.6214 51.8477 35.7976C51.6218 35.9723 51.3484 36.0597 51.0273 36.0597ZM51.0273 35.5909C51.3455 35.5909 51.5927 35.4375 51.7688 35.1307C51.945 34.8239 52.033 34.3864 52.033 33.8182C52.033 33.4403 51.9925 33.1186 51.9116 32.853C51.832 32.5874 51.717 32.3849 51.5664 32.2457C51.4173 32.1065 51.2376 32.0369 51.0273 32.0369C50.712 32.0369 50.4656 32.1925 50.288 32.5036C50.1104 32.8132 50.0217 33.2514 50.0217 33.8182C50.0217 34.196 50.0614 34.517 50.141 34.7812C50.2205 35.0455 50.3349 35.2464 50.484 35.3842C50.6346 35.522 50.8157 35.5909 51.0273 35.5909ZM54.4364 33.8182C54.4364 34.3551 54.3661 34.8494 54.2255 35.3011C54.0863 35.7514 53.8867 36.1662 53.6268 36.5455H53.1836C53.2859 36.4048 53.381 36.2315 53.4691 36.0256C53.5586 35.821 53.6367 35.5966 53.7035 35.3523C53.7702 35.1065 53.8221 34.853 53.859 34.5916C53.8974 34.3288 53.9165 34.071 53.9165 33.8182C53.9165 33.4801 53.8839 33.1371 53.8185 32.7891C53.7532 32.4411 53.6651 32.1179 53.5543 31.8196C53.4435 31.5213 53.32 31.2784 53.1836 31.0909H53.6268C53.8867 31.4702 54.0863 31.8857 54.2255 32.3374C54.3661 32.7876 54.4364 33.2812 54.4364 33.8182Z" fill="white"/>
</g>
<defs>
<clipPath id="clip0_709_661">
<rect width="74" height="68" fill="white"/>
</clipPath>
</defs>
</svg>
