<svg width="118" height="92" viewBox="0 0 118 92" fill="none" xmlns="http://www.w3.org/2000/svg">
<g clip-path="url(#clip0_712_730)">
<rect width="118" height="92" fill="white"/>
<rect width="118" height="92" fill="white"/>
<rect x="11" y="12" width="45" height="22" fill="#D9D9D9"/>
<rect x="62" y="14" width="22" height="3" fill="#D9D9D9"/>
<rect x="62" y="21" width="45" height="1" fill="#D9D9D9"/>
<rect x="62" y="26" width="45" height="1" fill="#D9D9D9"/>
<rect x="62" y="31" width="30" height="1" fill="#D9D9D9"/>
<rect x="11" y="46" width="45" height="22" rx="1" fill="#D9D9D9"/>
<rect x="62" y="48" width="22" height="3" fill="#D9D9D9"/>
<rect x="62" y="55" width="45" height="1" fill="#D9D9D9"/>
<rect x="62" y="60" width="45" height="1" fill="#D9D9D9"/>
<rect x="62" y="65" width="30" height="1" fill="#D9D9D9"/>
<rect x="11" y="80" width="45" height="22" rx="1" fill="#D9D9D9"/>
<rect x="62" y="82" width="22" height="3" fill="#D9D9D9"/>
<rect x="62" y="89" width="45" height="1" fill="#D9D9D9"/>
</g>
<defs>
<clipPath id="clip0_712_730">
<rect width="118" height="92" fill="white"/>
</clipPath>
</defs>
</svg>
