<svg width="118" height="92" viewBox="0 0 118 92" fill="none" xmlns="http://www.w3.org/2000/svg">
<g clip-path="url(#clip0_709_689)">
<rect width="118" height="92" fill="white"/>
<rect width="118" height="92" fill="white"/>
<rect x="8" y="12" width="45" height="21" fill="#D9D9D9"/>
<rect x="8" y="36" width="26" height="3" fill="#D9D9D9"/>
<rect x="8" y="41" width="45" height="1" fill="#D9D9D9"/>
<rect x="8" y="44" width="37" height="1" fill="#D9D9D9"/>
<rect x="8" y="57" width="45" height="21" fill="#D9D9D9"/>
<rect x="8" y="81" width="26" height="3" fill="#D9D9D9"/>
<rect x="8" y="86" width="45" height="1" fill="#D9D9D9"/>
<rect x="8" y="89" width="37" height="1" fill="#D9D9D9"/>
<rect x="59" y="12" width="45" height="21" fill="#D9D9D9"/>
<rect x="59" y="36" width="26" height="3" fill="#D9D9D9"/>
<rect x="59" y="41" width="45" height="1" fill="#D9D9D9"/>
<rect x="59" y="44" width="37" height="1" fill="#D9D9D9"/>
<rect x="59" y="57" width="45" height="21" fill="#D9D9D9"/>
<rect x="59" y="81" width="26" height="3" fill="#D9D9D9"/>
<rect x="59" y="86" width="45" height="1" fill="#D9D9D9"/>
<rect x="59" y="89" width="37" height="1" fill="#D9D9D9"/>
</g>
<defs>
<clipPath id="clip0_709_689">
<rect width="118" height="92" fill="white"/>
</clipPath>
</defs>
</svg>
