<svg width="122" height="92" viewBox="0 0 122 92" fill="none" xmlns="http://www.w3.org/2000/svg">
<g clip-path="url(#clip0_712_1037)">
<rect width="122" height="92" fill="white"/>
<rect width="122" height="92" fill="white"/>
<rect x="14" y="50" width="22" height="3" fill="#D9D9D9"/>
<rect x="14" y="57" width="45" height="1" fill="#D9D9D9"/>
<rect x="14" y="62" width="45" height="1" fill="#D9D9D9"/>
<rect x="14" y="67" width="30" height="1" fill="#D9D9D9"/>
<rect x="63" y="48" width="45" height="22" fill="#D9D9D9"/>
<rect x="14" y="14" width="45" height="22" fill="#D9D9D9"/>
<rect x="63" y="16" width="22" height="3" fill="#D9D9D9"/>
<rect x="63" y="23" width="45" height="1" fill="#D9D9D9"/>
<rect x="63" y="28" width="45" height="1" fill="#D9D9D9"/>
<rect x="63" y="33" width="30" height="1" fill="#D9D9D9"/>
<rect x="14" y="80" width="45" height="22" fill="#D9D9D9"/>
<rect x="63" y="82" width="22" height="3" fill="#D9D9D9"/>
<rect x="63" y="89" width="45" height="1" fill="#D9D9D9"/>
</g>
<defs>
<clipPath id="clip0_712_1037">
<rect width="122" height="92" fill="white"/>
</clipPath>
</defs>
</svg>
