<svg width="118" height="92" viewBox="0 0 118 92" fill="none" xmlns="http://www.w3.org/2000/svg">
<g clip-path="url(#clip0_2_24)">
<mask id="mask0_2_24" style="mask-type:luminance" maskUnits="userSpaceOnUse" x="0" y="0" width="118" height="92">
<path d="M118 0H0V92H118V0Z" fill="white"/>
</mask>
<g mask="url(#mask0_2_24)">
<path d="M118 0H0V92H118V0Z" fill="#D9D9D9"/>
<path d="M93 90H25V91H93V90Z" fill="#D9D9D9"/>
<g filter="url(#filter0_d_2_24)">
<rect x="19" width="80" height="92" fill="white"/>
</g>
<path d="M93 12H25V36H93V12Z" fill="#D9D9D9"/>
<path d="M93 40H25V41H93V40Z" fill="#D9D9D9"/>
<path d="M93 45H25V46H93V45Z" fill="#D9D9D9"/>
<path d="M93 50H25V51H93V50Z" fill="#D9D9D9"/>
<path d="M93 55H25V56H93V55Z" fill="#D9D9D9"/>
<path d="M93 60H25V61H93V60Z" fill="#D9D9D9"/>
<path d="M93 65H25V66H93V65Z" fill="#D9D9D9"/>
<path d="M93 70H25V71H93V70Z" fill="#D9D9D9"/>
<path d="M93 75H25V76H93V75Z" fill="#D9D9D9"/>
<path d="M93 80H25V81H93V80Z" fill="#D9D9D9"/>
<path d="M93 85H25V86H93V85Z" fill="#D9D9D9"/>
</g>
</g>
<defs>
<filter id="filter0_d_2_24" x="17" y="0" width="84" height="96" filterUnits="userSpaceOnUse" color-interpolation-filters="sRGB">
<feFlood flood-opacity="0" result="BackgroundImageFix"/>
<feColorMatrix in="SourceAlpha" type="matrix" values="0 0 0 0 0 0 0 0 0 0 0 0 0 0 0 0 0 0 127 0" result="hardAlpha"/>
<feOffset dy="2"/>
<feGaussianBlur stdDeviation="1"/>
<feComposite in2="hardAlpha" operator="out"/>
<feColorMatrix type="matrix" values="0 0 0 0 0 0 0 0 0 0 0 0 0 0 0 0 0 0 0.04 0"/>
<feBlend mode="normal" in2="BackgroundImageFix" result="effect1_dropShadow_2_24"/>
<feBlend mode="normal" in="SourceGraphic" in2="effect1_dropShadow_2_24" result="shape"/>
</filter>
<clipPath id="clip0_2_24">
<rect width="118" height="92" fill="white"/>
</clipPath>
</defs>
</svg>
