<svg width="78" height="38" viewBox="0 0 78 38" fill="none" xmlns="http://www.w3.org/2000/svg">
<rect width="78" height="38" fill="white"/>
<g clip-path="url(#clip0_1_535)">
<path d="M39 9.79999C44.0732 9.79999 48.2 13.9272 48.2 19C48.2 24.0728 44.0732 28.2 39 28.2C33.9268 28.2 29.8 24.0728 29.8 19C29.8 13.9272 33.9268 9.79999 39 9.79999ZM46.2 19C46.2 17.3752 45.6516 15.88 44.74 14.674L34.674 24.74C35.88 25.6516 37.3752 26.2 39 26.2C42.97 26.2 46.2 22.97 46.2 19ZM33.26 23.326L43.326 13.26C42.12 12.3484 40.6248 11.8 39 11.8C35.03 11.8 31.8 15.03 31.8 19C31.8 20.6248 32.3484 22.12 33.26 23.326Z" fill="#D9D9D9"/>
</g>
<defs>
<clipPath id="clip0_1_535">
<rect width="20" height="20" fill="white" transform="matrix(-1 0 0 1 49 9)"/>
</clipPath>
</defs>
</svg>
