<svg width="150" height="100" viewBox="0 0 150 100" fill="none" xmlns="http://www.w3.org/2000/svg">
<rect width="150" height="100" fill="white"/>
<path d="M74 12H13V48H74V12Z" fill="#D9D9D9"/>
<path d="M26 51H13V64H26V51Z" fill="#D9D9D9"/>
<path d="M42 51H29V64H42V51Z" fill="#D9D9D9"/>
<path d="M58 51H45V64H58V51Z" fill="#D9D9D9"/>
<path d="M74 51H61V64H74V51Z" fill="#D9D9D9"/>
<path d="M138 71H13V88H138V71Z" fill="#D9D9D9"/>
<path d="M108.412 12H88.4117V16H108.412V12Z" fill="#E4E5E6"/>
<path d="M88 31.874C88 29.6649 89.7909 27.874 92 27.874H121.815C124.024 27.874 125.815 29.6649 125.815 31.874V31.874C125.815 34.0832 124.024 35.874 121.815 35.874H92C89.7909 35.874 88 34.0832 88 31.874V31.874Z" fill="#E4E5E6"/>
<path d="M138.412 19.563H88.4117V23.563H138.412V19.563Z" fill="#E4E5E6"/>
</svg>
