<svg width="78" height="76" viewBox="0 0 78 76" fill="none" xmlns="http://www.w3.org/2000/svg">
<rect width="78" height="76" fill="white"/>
<path d="M65 41H13C12.4477 41 12 41.4477 12 42V61C12 61.5523 12.4477 62 13 62H65C65.5523 62 66 61.5523 66 61V42C66 41.4477 65.5523 41 65 41Z" fill="#D9D9D9"/>
<path d="M12 12C12 11.4477 12.4477 11 13 11H65C65.5523 11 66 11.4477 66 12V38C66 38.5523 65.5523 39 65 39H13C12.4477 39 12 38.5523 12 38V12Z" fill="#1C1C1C"/>
<path d="M12 65C12 64.4477 12.4477 64 13 64H65C65.5523 64 66 64.4477 66 65V73H12V65Z" fill="#D9D9D9"/>
</svg>
