<svg width="78" height="76" viewBox="0 0 78 76" fill="none" xmlns="http://www.w3.org/2000/svg">
<rect width="78" height="76" fill="white"/>
<path d="M65 11H13C12.4477 11 12 11.4477 12 12V48C12 48.5523 12.4477 49 13 49H65C65.5523 49 66 48.5523 66 48V12C66 11.4477 65.5523 11 65 11Z" fill="#1C1C1C"/>
<path d="M22 52H13C12.4477 52 12 52.4477 12 53V62C12 62.5523 12.4477 63 13 63H22C22.5523 63 23 62.5523 23 62V53C23 52.4477 22.5523 52 22 52Z" fill="#1C1C1C"/>
<path opacity="0.6" d="M51 52H42C41.4477 52 41 52.4477 41 53V62C41 62.5523 41.4477 63 42 63H51C51.5523 63 52 62.5523 52 62V53C52 52.4477 51.5523 52 51 52Z" fill="#D9D9D9"/>
<path opacity="0.6" d="M36 52H27C26.4477 52 26 52.4477 26 53V62C26 62.5523 26.4477 63 27 63H36C36.5523 63 37 62.5523 37 62V53C37 52.4477 36.5523 52 36 52Z" fill="#D9D9D9"/>
<path opacity="0.6" d="M65 52H56C55.4477 52 55 52.4477 55 53V62C55 62.5523 55.4477 63 56 63H65C65.5523 63 66 62.5523 66 62V53C66 52.4477 65.5523 52 65 52Z" fill="#D9D9D9"/>
</svg>
